<?xml version="1.0" encoding="utf-8"?>
<!-- Generator: Adobe Illustrator 24.2.1, SVG Export Plug-In . SVG Version: 6.00 Build 0)  -->
<svg version="1.1" id="Layer_1" xmlns="http://www.w3.org/2000/svg" xmlns:xlink="http://www.w3.org/1999/xlink" x="0px" y="0px"
	 viewBox="0 0 451.8 305.4" style="enable-background:new 0 0 451.8 305.4;" xml:space="preserve">
<style type="text/css">
	.st0{fill:#FBAB44;}
	.st1{enable-background:new    ;}
	.st2{fill:#FFFFFF;}
	.st3{fill:#3754A5;}
	.st4{fill:#F26B6A;}
</style>
<g>
	<circle class="st0" cx="138.1" cy="157.1" r="138.1"/>
</g>
<g class="st1">
	<path class="st2" d="M64.3,122.8l-1.2,6.6c21.4-0.4,33.2,6,33.2,21c0,12.9-9.9,19.7-22.6,19.7c-13.5,0-20.7-5.1-20.7-11.9
		c0-3.3,2-6.1,4.5-7.4h9.3c-0.3,1.3-0.8,3-0.8,5.1c0,6.3,2.6,10.7,8.7,10.7c5.3,0,8.7-3.6,8.7-9.7c0-8.7-7.9-13.5-26.2-13.5
		l5.4-34.4h23.6c3,0,3.6-0.3,5.1-3.6h3.3L92,122.8H64.3z"/>
</g>
<g class="st1">
	<path class="st2" d="M101.4,139.2c0-19.7,11.3-31,26.5-31s26.5,11.2,26.5,31c0,19.7-11.3,31-26.5,31S101.4,158.9,101.4,139.2z
		 M136.7,139.2c0-15.1-1.6-27.4-8.8-27.4s-8.8,12.3-8.8,27.4c0,15.1,1.6,27.4,8.8,27.4S136.7,154.3,136.7,139.2z"/>
</g>
<g class="st1">
	<path class="st2" d="M174.1,108.2c7.8,0,14.7,5.1,14.7,14.8c0,9.9-6.9,14.9-14.7,14.9c-7.9,0-14.8-5.1-14.8-14.9
		C159.2,113.3,166.2,108.2,174.1,108.2z M174.1,135c3.9,0,5.2-5.3,5.2-11.9c0-6.5-1.3-11.8-5.2-11.8c-3.9,0-5.2,5.3-5.2,11.8
		C168.8,129.7,170.1,135,174.1,135z M206.7,108.2h4.6l-37.6,61.9h-4.6L206.7,108.2z M206.4,170.1c-7.8,0-14.8-5.1-14.8-14.8
		c0-9.9,7-14.9,14.8-14.9c7.9,0,14.8,5.1,14.8,14.9C221.2,165.1,214.3,170.1,206.4,170.1z M206.4,143.4c-3.9,0-5.2,5.3-5.2,11.9
		c0,6.5,1.3,11.8,5.2,11.8s5.2-5.3,5.2-11.8C211.6,148.7,210.3,143.4,206.4,143.4z"/>
</g>
<g class="st1">
	<path class="st2" d="M61.2,203.5h-2.8v-1.3h0c-0.1,0.2-0.3,0.3-0.5,0.5c-0.2,0.2-0.4,0.3-0.7,0.5c-0.3,0.1-0.5,0.3-0.9,0.4
		c-0.3,0.1-0.6,0.1-1,0.1c-0.7,0-1.4-0.1-2-0.4c-0.6-0.2-1.1-0.6-1.5-1c-0.4-0.4-0.7-1-1-1.6c-0.2-0.6-0.3-1.3-0.3-2
		c0-0.7,0.1-1.3,0.3-2c0.2-0.6,0.5-1.2,0.9-1.7c0.4-0.5,0.8-0.9,1.4-1.2c0.5-0.3,1.2-0.4,1.9-0.4c0.6,0,1.2,0.1,1.8,0.3s1,0.5,1.3,1
		h0v-6.4h3V203.5z M58.5,198.7c0-0.7-0.2-1.3-0.6-1.8c-0.4-0.5-1-0.7-1.8-0.7c-0.8,0-1.4,0.2-1.8,0.7c-0.4,0.5-0.6,1-0.6,1.8
		s0.2,1.3,0.6,1.8c0.4,0.5,1,0.7,1.8,0.7c0.8,0,1.4-0.2,1.8-0.7C58.3,200,58.5,199.4,58.5,198.7z"/>
	<path class="st2" d="M63.6,190.7c0-0.5,0.2-0.9,0.5-1.2c0.3-0.3,0.8-0.5,1.2-0.5c0.5,0,0.9,0.2,1.2,0.5c0.3,0.3,0.5,0.8,0.5,1.2
		c0,0.5-0.2,0.9-0.5,1.2c-0.3,0.3-0.8,0.5-1.2,0.5c-0.5,0-0.9-0.2-1.2-0.5C63.8,191.6,63.6,191.2,63.6,190.7z M63.8,193.8h3v9.7h-3
		V193.8z"/>
	<path class="st2" d="M79.4,203.5h-2.8v-1.3h0c-0.1,0.2-0.3,0.3-0.5,0.5c-0.2,0.2-0.4,0.3-0.7,0.5c-0.3,0.1-0.5,0.3-0.9,0.4
		c-0.3,0.1-0.6,0.1-1,0.1c-0.7,0-1.4-0.1-2-0.4c-0.6-0.2-1.1-0.6-1.5-1c-0.4-0.4-0.7-1-1-1.6c-0.2-0.6-0.3-1.3-0.3-2
		c0-0.7,0.1-1.3,0.3-2c0.2-0.6,0.5-1.2,0.9-1.7c0.4-0.5,0.8-0.9,1.4-1.2c0.5-0.3,1.2-0.4,1.9-0.4c0.6,0,1.2,0.1,1.8,0.3s1,0.5,1.3,1
		h0v-6.4h3V203.5z M76.6,198.7c0-0.7-0.2-1.3-0.6-1.8c-0.4-0.5-1-0.7-1.8-0.7c-0.8,0-1.4,0.2-1.8,0.7c-0.4,0.5-0.6,1-0.6,1.8
		s0.2,1.3,0.6,1.8c0.4,0.5,1,0.7,1.8,0.7c0.8,0,1.4-0.2,1.8-0.7C76.4,200,76.6,199.4,76.6,198.7z"/>
	<path class="st2" d="M88,193.8h2.9v1.3h0c0.1-0.2,0.2-0.4,0.4-0.6c0.2-0.2,0.4-0.4,0.6-0.5s0.5-0.3,0.8-0.4c0.3-0.1,0.6-0.1,1-0.1
		c0.8,0,1.4,0.1,1.8,0.3c0.5,0.2,0.8,0.6,1.1,1s0.4,0.9,0.5,1.5c0.1,0.6,0.1,1.2,0.1,1.8v5.4h-3v-4.8c0-0.3,0-0.6,0-0.9
		s-0.1-0.6-0.2-0.8c-0.1-0.3-0.3-0.5-0.5-0.6c-0.2-0.2-0.5-0.2-0.9-0.2c-0.4,0-0.7,0.1-0.9,0.2c-0.2,0.1-0.4,0.3-0.6,0.6
		c-0.1,0.2-0.2,0.5-0.2,0.8c0,0.3-0.1,0.6-0.1,0.9v4.8h-3V193.8z"/>
	<path class="st2" d="M99.3,198.7c0-0.8,0.1-1.5,0.4-2.1c0.3-0.6,0.7-1.2,1.2-1.6c0.5-0.4,1.1-0.8,1.7-1c0.7-0.2,1.4-0.4,2.1-0.4
		c0.7,0,1.5,0.1,2.1,0.4c0.7,0.2,1.2,0.6,1.7,1c0.5,0.4,0.9,1,1.2,1.6c0.3,0.6,0.4,1.3,0.4,2.1s-0.1,1.5-0.4,2.1
		c-0.3,0.6-0.7,1.2-1.2,1.6c-0.5,0.4-1.1,0.8-1.7,1s-1.4,0.4-2.1,0.4c-0.7,0-1.5-0.1-2.1-0.4s-1.2-0.6-1.7-1c-0.5-0.4-0.9-1-1.2-1.6
		C99.4,200.1,99.3,199.4,99.3,198.7z M102.3,198.7c0,0.7,0.2,1.3,0.6,1.8c0.4,0.5,1,0.7,1.8,0.7c0.8,0,1.4-0.2,1.8-0.7
		c0.4-0.5,0.6-1,0.6-1.8s-0.2-1.3-0.6-1.8c-0.4-0.5-1-0.7-1.8-0.7c-0.8,0-1.4,0.2-1.8,0.7C102.5,197.3,102.3,197.9,102.3,198.7z"/>
	<path class="st2" d="M118.6,196.2H116v3.2c0,0.3,0,0.5,0,0.7c0,0.2,0.1,0.4,0.2,0.6c0.1,0.2,0.2,0.3,0.4,0.4
		c0.2,0.1,0.4,0.1,0.8,0.1c0.2,0,0.4,0,0.6-0.1c0.3,0,0.5-0.1,0.6-0.2v2.5c-0.3,0.1-0.7,0.2-1,0.2c-0.4,0-0.7,0.1-1.1,0.1
		c-0.5,0-1-0.1-1.4-0.2s-0.8-0.3-1.1-0.5c-0.3-0.2-0.6-0.5-0.8-0.9c-0.2-0.4-0.3-0.8-0.3-1.4v-4.6h-1.9v-2.4h1.9v-2.9h3v2.9h2.6
		V196.2z"/>
	<path class="st2" d="M135.7,203.5h-2.9v-1.3h0c-0.1,0.2-0.2,0.4-0.4,0.6c-0.2,0.2-0.4,0.4-0.6,0.5s-0.5,0.3-0.8,0.4
		c-0.3,0.1-0.6,0.1-1,0.1c-0.8,0-1.4-0.1-1.9-0.4c-0.5-0.2-0.8-0.6-1.1-1s-0.4-0.9-0.5-1.5c-0.1-0.6-0.1-1.2-0.1-1.8v-5.4h3v4.8
		c0,0.3,0,0.6,0,0.9c0,0.3,0.1,0.6,0.2,0.8c0.1,0.3,0.3,0.5,0.5,0.6c0.2,0.2,0.5,0.2,0.9,0.2s0.7-0.1,0.9-0.2
		c0.2-0.1,0.4-0.3,0.6-0.6c0.1-0.2,0.2-0.5,0.2-0.8c0-0.3,0.1-0.6,0.1-0.9v-4.8h3V203.5z"/>
	<path class="st2" d="M143.5,196.7c-0.4-0.5-1-0.8-1.7-0.8c-0.3,0-0.5,0.1-0.7,0.2c-0.2,0.1-0.4,0.3-0.4,0.6c0,0.2,0.1,0.4,0.4,0.5
		c0.2,0.1,0.6,0.2,0.9,0.3c0.4,0.1,0.8,0.2,1.2,0.3c0.4,0.1,0.8,0.3,1.2,0.5c0.4,0.2,0.7,0.5,0.9,0.9c0.2,0.4,0.4,0.9,0.4,1.5
		c0,0.6-0.1,1.1-0.4,1.6c-0.3,0.4-0.6,0.7-1.1,1c-0.4,0.2-0.9,0.4-1.4,0.5c-0.5,0.1-1.1,0.2-1.6,0.2c-0.7,0-1.4-0.1-2.1-0.3
		c-0.7-0.2-1.3-0.5-1.8-1l1.8-2c0.3,0.3,0.6,0.6,0.9,0.8c0.3,0.2,0.7,0.3,1.2,0.3c0.3,0,0.7,0,0.9-0.1c0.3-0.1,0.4-0.3,0.4-0.6
		c0-0.3-0.1-0.4-0.4-0.6c-0.2-0.1-0.6-0.2-0.9-0.3c-0.4-0.1-0.8-0.2-1.2-0.3c-0.4-0.1-0.8-0.2-1.2-0.5c-0.4-0.2-0.7-0.5-0.9-0.9
		c-0.2-0.4-0.4-0.9-0.4-1.5c0-0.6,0.1-1.1,0.4-1.5c0.2-0.4,0.5-0.8,0.9-1c0.4-0.3,0.8-0.5,1.3-0.6c0.5-0.1,1-0.2,1.5-0.2
		c0.6,0,1.3,0.1,1.9,0.3c0.7,0.2,1.2,0.5,1.7,1L143.5,196.7z"/>
	<path class="st2" d="M156.7,201.8c-0.5,0.6-1.1,1.1-1.8,1.4c-0.7,0.3-1.5,0.5-2.3,0.5c-0.7,0-1.5-0.1-2.1-0.4s-1.2-0.6-1.7-1
		c-0.5-0.4-0.9-1-1.2-1.6c-0.3-0.6-0.4-1.3-0.4-2.1s0.1-1.5,0.4-2.1c0.3-0.6,0.7-1.2,1.2-1.6c0.5-0.4,1.1-0.8,1.7-1
		c0.7-0.2,1.4-0.4,2.1-0.4c0.7,0,1.3,0.1,1.9,0.4c0.6,0.2,1,0.6,1.4,1c0.4,0.4,0.7,1,0.9,1.6c0.2,0.6,0.3,1.3,0.3,2.1v0.9h-7
		c0.1,0.6,0.4,1,0.8,1.4c0.4,0.3,0.9,0.5,1.5,0.5c0.5,0,0.9-0.1,1.2-0.3c0.3-0.2,0.6-0.5,0.9-0.8L156.7,201.8z M154.1,197.6
		c0-0.5-0.2-0.9-0.5-1.3c-0.3-0.4-0.8-0.5-1.3-0.5c-0.3,0-0.6,0.1-0.9,0.2c-0.3,0.1-0.5,0.2-0.7,0.4c-0.2,0.2-0.3,0.4-0.4,0.6
		c-0.1,0.2-0.2,0.5-0.2,0.7H154.1z"/>
	<path class="st2" d="M171.3,202.3L171.3,202.3c-0.4,0.5-0.8,0.9-1.4,1.1c-0.6,0.2-1.1,0.3-1.8,0.3c-0.5,0-0.9-0.1-1.3-0.2
		c-0.4-0.1-0.8-0.3-1.1-0.6c-0.3-0.3-0.6-0.6-0.8-0.9c-0.2-0.4-0.3-0.8-0.3-1.3c0-0.6,0.1-1,0.3-1.4c0.2-0.4,0.5-0.7,0.8-1
		c0.4-0.3,0.8-0.5,1.2-0.6c0.5-0.1,0.9-0.2,1.4-0.3c0.5-0.1,1-0.1,1.5-0.1c0.5,0,0.9,0,1.4,0c0-0.5-0.2-1-0.6-1.3
		c-0.4-0.3-0.8-0.5-1.4-0.5c-0.5,0-0.9,0.1-1.4,0.3s-0.8,0.5-1.1,0.9l-1.6-1.6c0.6-0.5,1.2-0.9,2-1.2c0.7-0.3,1.5-0.4,2.3-0.4
		c0.9,0,1.6,0.1,2.2,0.3s1,0.5,1.4,1c0.3,0.4,0.6,1,0.7,1.6c0.1,0.6,0.2,1.3,0.2,2.2v4.9h-2.8V202.3z M170.5,199.3
		c-0.2,0-0.5,0-0.9,0c-0.3,0-0.7,0.1-1,0.2c-0.3,0.1-0.6,0.2-0.8,0.4c-0.2,0.2-0.3,0.4-0.3,0.8c0,0.4,0.2,0.6,0.5,0.8
		c0.3,0.2,0.6,0.3,1,0.3c0.3,0,0.6,0,0.9-0.1c0.3-0.1,0.5-0.2,0.7-0.3c0.2-0.1,0.4-0.3,0.5-0.6c0.1-0.2,0.2-0.5,0.2-0.8v-0.6H170.5z
		"/>
	<path class="st2" d="M195.4,202.5c-0.9,0.5-1.9,0.8-2.9,1c-1,0.2-2,0.3-3.1,0.3c-1.1,0-2.1-0.2-3.1-0.5c-0.9-0.3-1.7-0.8-2.4-1.5
		s-1.2-1.4-1.6-2.4c-0.4-0.9-0.6-1.9-0.6-3.1s0.2-2.2,0.6-3.1c0.4-0.9,0.9-1.7,1.6-2.4c0.7-0.6,1.5-1.1,2.4-1.5
		c0.9-0.3,2-0.5,3.1-0.5c1.1,0,2.2,0.1,3.1,0.4c1,0.3,1.8,0.7,2.5,1.4l-2.2,2.4c-0.4-0.4-0.9-0.8-1.4-1c-0.5-0.2-1.2-0.3-2-0.3
		c-0.7,0-1.3,0.1-1.8,0.3c-0.5,0.2-1,0.5-1.4,1c-0.4,0.4-0.7,0.9-0.9,1.5c-0.2,0.6-0.3,1.2-0.3,1.8c0,0.7,0.1,1.3,0.3,1.8
		c0.2,0.6,0.5,1,0.9,1.4c0.4,0.4,0.9,0.7,1.4,1c0.5,0.2,1.1,0.3,1.8,0.3c0.7,0,1.3-0.1,1.8-0.2c0.5-0.2,0.9-0.3,1.2-0.5V198h-2.5
		v-2.9h5.5V202.5z"/>
	<path class="st2" d="M198.3,189.3h5.3c0.7,0,1.4,0.1,2.1,0.2c0.7,0.1,1.2,0.4,1.7,0.7c0.5,0.3,0.9,0.8,1.2,1.3
		c0.3,0.6,0.4,1.2,0.4,2.1c0,0.8-0.1,1.5-0.4,2.1c-0.3,0.6-0.6,1-1.1,1.3c-0.5,0.3-1,0.6-1.7,0.7c-0.6,0.1-1.3,0.2-2.1,0.2h-2.3v5.5
		h-3.1V189.3z M201.4,195.4h2.1c0.3,0,0.6,0,0.8-0.1c0.3-0.1,0.5-0.1,0.7-0.3c0.2-0.1,0.4-0.3,0.5-0.5c0.1-0.2,0.2-0.5,0.2-0.8
		c0-0.4-0.1-0.6-0.2-0.9c-0.2-0.2-0.4-0.4-0.6-0.5c-0.3-0.1-0.5-0.2-0.9-0.2c-0.3,0-0.6,0-0.9,0h-1.6V195.4z"/>
	<path class="st2" d="M210.3,196.4c0-1.1,0.2-2.2,0.6-3.1c0.4-0.9,0.9-1.7,1.6-2.4c0.7-0.6,1.5-1.1,2.4-1.5c0.9-0.3,2-0.5,3.1-0.5
		s2.1,0.2,3.1,0.5s1.7,0.8,2.4,1.5c0.7,0.6,1.2,1.4,1.6,2.4c0.4,0.9,0.6,1.9,0.6,3.1s-0.2,2.2-0.6,3.1c-0.4,0.9-0.9,1.7-1.6,2.4
		s-1.5,1.1-2.4,1.5s-2,0.5-3.1,0.5s-2.1-0.2-3.1-0.5c-0.9-0.3-1.7-0.8-2.4-1.5s-1.2-1.4-1.6-2.4
		C210.5,198.6,210.3,197.6,210.3,196.4z M213.5,196.4c0,0.7,0.1,1.3,0.3,1.8c0.2,0.6,0.5,1,0.9,1.4c0.4,0.4,0.9,0.7,1.4,1
		c0.5,0.2,1.1,0.3,1.8,0.3s1.3-0.1,1.8-0.3c0.5-0.2,1-0.5,1.4-1c0.4-0.4,0.7-0.9,0.9-1.4c0.2-0.6,0.3-1.2,0.3-1.8
		c0-0.7-0.1-1.3-0.3-1.8c-0.2-0.6-0.5-1-0.9-1.5c-0.4-0.4-0.9-0.7-1.4-1c-0.5-0.2-1.1-0.3-1.8-0.3s-1.3,0.1-1.8,0.3
		c-0.5,0.2-1,0.5-1.4,1c-0.4,0.4-0.7,0.9-0.9,1.5C213.6,195.2,213.5,195.8,213.5,196.4z"/>
</g>
<g>
	<circle class="st3" cx="344" cy="104.5" r="104.5"/>
</g>
<g class="st1">
	<path class="st2" d="M313.7,84.3c3.9,0,5.2-0.3,8.2-5.8h1.8l-1.3,15h-29.1v-1.9l11.2-11.2c4.7-4.7,7-8.8,7-13.8
		c0-4.3-2.4-7.3-7-7.3c-3.3,0-6,1.6-7.8,3.8l-1.8-1.2c2.9-5.5,7.2-10.1,15.1-10.1c7.4,0,12.2,4.2,12.2,11c0,8.8-9.9,15.3-18.8,21.5
		H313.7z"/>
</g>
<g class="st1">
	<path class="st2" d="M327.4,93.4v-2.5c5.4-0.2,5.6-0.7,5.6-4.3V62h-5.6v-2.3l2.7-0.5c5.8-1,8.8-3.2,11.9-7.5h2.5v34.9
		c0,3.6,0.6,4,5.4,4.3v2.5H327.4z"/>
</g>
<g class="st1">
	<path class="st2" d="M360.6,51.7c5.3,0,10.1,3.5,10.1,10.1c0,6.7-4.7,10.2-10.1,10.2c-5.4,0-10.1-3.5-10.1-10.2
		C350.5,55.2,355.2,51.7,360.6,51.7z M360.6,70c2.7,0,3.6-3.6,3.6-8.1c0-4.4-0.9-8.1-3.6-8.1s-3.6,3.6-3.6,8.1
		C357,66.4,357.9,70,360.6,70z M382.9,51.7h3.2L360.3,94h-3.2L382.9,51.7z M382.6,94c-5.3,0-10.1-3.5-10.1-10.1
		c0-6.7,4.8-10.2,10.1-10.2c5.4,0,10.1,3.5,10.1,10.2C392.7,90.5,388,94,382.6,94z M382.6,75.7c-2.7,0-3.6,3.6-3.6,8.1
		c0,4.4,0.9,8.1,3.6,8.1s3.6-3.6,3.6-8.1C386.2,79.3,385.3,75.7,382.6,75.7z"/>
</g>
<g class="st1">
	<path class="st2" d="M273,117.2c-0.1-0.1-0.2-0.3-0.4-0.4c-0.2-0.1-0.4-0.1-0.6-0.1c-0.5,0-0.9,0.2-1.2,0.5
		c-0.3,0.3-0.4,0.7-0.4,1.2c0,0.5,0.1,0.9,0.4,1.2c0.3,0.3,0.7,0.5,1.2,0.5c0.2,0,0.4,0,0.6-0.2c0.2-0.1,0.3-0.2,0.4-0.4l1.4,1.4
		c-0.3,0.3-0.7,0.6-1.1,0.7c-0.4,0.1-0.8,0.2-1.2,0.2c-0.5,0-1-0.1-1.4-0.2c-0.5-0.2-0.8-0.4-1.2-0.7c-0.3-0.3-0.6-0.7-0.8-1.1
		c-0.2-0.4-0.3-0.9-0.3-1.4c0-0.5,0.1-1,0.3-1.4c0.2-0.4,0.5-0.8,0.8-1.1c0.3-0.3,0.7-0.5,1.2-0.7c0.5-0.2,0.9-0.2,1.4-0.2
		c0.4,0,0.8,0.1,1.2,0.2c0.4,0.1,0.8,0.4,1.1,0.7L273,117.2z"/>
	<path class="st2" d="M274.9,118.3c0-0.5,0.1-1,0.3-1.4c0.2-0.4,0.5-0.8,0.8-1.1c0.3-0.3,0.7-0.5,1.2-0.7c0.5-0.2,0.9-0.2,1.4-0.2
		c0.5,0,1,0.1,1.4,0.2c0.5,0.2,0.8,0.4,1.2,0.7c0.3,0.3,0.6,0.7,0.8,1.1s0.3,0.9,0.3,1.4c0,0.5-0.1,1-0.3,1.4s-0.5,0.8-0.8,1.1
		c-0.3,0.3-0.7,0.5-1.2,0.7s-0.9,0.2-1.4,0.2c-0.5,0-1-0.1-1.4-0.2c-0.5-0.2-0.8-0.4-1.2-0.7s-0.6-0.7-0.8-1.1
		C275,119.3,274.9,118.9,274.9,118.3z M277,118.3c0,0.5,0.1,0.9,0.4,1.2s0.7,0.5,1.2,0.5s0.9-0.2,1.2-0.5c0.3-0.3,0.4-0.7,0.4-1.2
		c0-0.5-0.1-0.9-0.4-1.2c-0.3-0.3-0.7-0.5-1.2-0.5s-0.9,0.2-1.2,0.5S277,117.8,277,118.3z"/>
	<path class="st2" d="M290,121.7h-2v-0.9h0c-0.1,0.1-0.2,0.3-0.3,0.4c-0.1,0.1-0.3,0.2-0.4,0.3c-0.2,0.1-0.4,0.2-0.6,0.2
		c-0.2,0.1-0.4,0.1-0.7,0.1c-0.5,0-0.9-0.1-1.3-0.2c-0.3-0.2-0.6-0.4-0.8-0.7c-0.2-0.3-0.3-0.6-0.4-1c-0.1-0.4-0.1-0.8-0.1-1.2V115
		h2v3.2c0,0.2,0,0.4,0,0.6c0,0.2,0.1,0.4,0.1,0.6c0.1,0.2,0.2,0.3,0.3,0.4c0.1,0.1,0.3,0.2,0.6,0.2s0.5,0,0.6-0.1
		c0.2-0.1,0.3-0.2,0.4-0.4c0.1-0.2,0.1-0.3,0.2-0.5c0-0.2,0-0.4,0-0.6V115h2V121.7z"/>
	<path class="st2" d="M291.6,111.3h2v10.3h-2V111.3z"/>
	<path class="st2" d="M302.1,121.7h-1.9v-0.9h0c-0.1,0.1-0.2,0.2-0.3,0.4s-0.3,0.2-0.5,0.3c-0.2,0.1-0.4,0.2-0.6,0.2
		c-0.2,0.1-0.4,0.1-0.7,0.1c-0.5,0-0.9-0.1-1.3-0.3c-0.4-0.2-0.7-0.4-1-0.7c-0.3-0.3-0.5-0.7-0.7-1.1c-0.2-0.4-0.2-0.9-0.2-1.4
		c0-0.5,0.1-0.9,0.2-1.3c0.1-0.4,0.3-0.8,0.6-1.1c0.3-0.3,0.6-0.6,0.9-0.8c0.4-0.2,0.8-0.3,1.3-0.3c0.4,0,0.8,0.1,1.2,0.2
		s0.7,0.4,0.9,0.7h0v-4.4h2V121.7z M300.3,118.3c0-0.5-0.1-0.9-0.4-1.2c-0.3-0.3-0.7-0.5-1.2-0.5s-0.9,0.2-1.2,0.5
		c-0.3,0.3-0.4,0.7-0.4,1.2c0,0.5,0.1,0.9,0.4,1.2c0.3,0.3,0.7,0.5,1.2,0.5s0.9-0.2,1.2-0.5C300.1,119.2,300.3,118.8,300.3,118.3z"
		/>
	<path class="st2" d="M308,115h2v0.9h0c0.1-0.1,0.2-0.3,0.3-0.4s0.3-0.2,0.4-0.3c0.2-0.1,0.3-0.2,0.6-0.2c0.2-0.1,0.4-0.1,0.7-0.1
		c0.5,0,0.9,0.1,1.3,0.2s0.6,0.4,0.7,0.7c0.2,0.3,0.3,0.6,0.4,1c0.1,0.4,0.1,0.8,0.1,1.2v3.7h-2v-3.2c0-0.2,0-0.4,0-0.6
		c0-0.2-0.1-0.4-0.1-0.6s-0.2-0.3-0.3-0.4c-0.1-0.1-0.3-0.2-0.6-0.2c-0.3,0-0.5,0-0.6,0.1c-0.2,0.1-0.3,0.2-0.4,0.4
		c-0.1,0.2-0.1,0.3-0.2,0.5s0,0.4,0,0.6v3.3h-2V115z"/>
	<path class="st2" d="M315.7,118.3c0-0.5,0.1-1,0.3-1.4c0.2-0.4,0.5-0.8,0.8-1.1c0.3-0.3,0.7-0.5,1.2-0.7c0.5-0.2,0.9-0.2,1.4-0.2
		c0.5,0,1,0.1,1.4,0.2c0.5,0.2,0.8,0.4,1.2,0.7c0.3,0.3,0.6,0.7,0.8,1.1s0.3,0.9,0.3,1.4c0,0.5-0.1,1-0.3,1.4s-0.5,0.8-0.8,1.1
		c-0.3,0.3-0.7,0.5-1.2,0.7s-0.9,0.2-1.4,0.2c-0.5,0-1-0.1-1.4-0.2c-0.5-0.2-0.8-0.4-1.2-0.7s-0.6-0.7-0.8-1.1
		C315.8,119.3,315.7,118.9,315.7,118.3z M317.8,118.3c0,0.5,0.1,0.9,0.4,1.2s0.7,0.5,1.2,0.5s0.9-0.2,1.2-0.5
		c0.3-0.3,0.4-0.7,0.4-1.2c0-0.5-0.1-0.9-0.4-1.2c-0.3-0.3-0.7-0.5-1.2-0.5s-0.9,0.2-1.2,0.5S317.8,117.8,317.8,118.3z"/>
	<path class="st2" d="M328.9,116.7h-1.8v2.2c0,0.2,0,0.3,0,0.5c0,0.2,0.1,0.3,0.1,0.4c0.1,0.1,0.2,0.2,0.3,0.3
		c0.1,0.1,0.3,0.1,0.5,0.1c0.1,0,0.3,0,0.4,0c0.2,0,0.3-0.1,0.4-0.2v1.7c-0.2,0.1-0.5,0.1-0.7,0.2c-0.2,0-0.5,0-0.7,0
		c-0.3,0-0.7,0-1-0.1c-0.3-0.1-0.5-0.2-0.8-0.3c-0.2-0.2-0.4-0.4-0.5-0.6c-0.1-0.3-0.2-0.6-0.2-0.9v-3.2h-1.3V115h1.3v-2h2v2h1.8
		V116.7z"/>
	<path class="st2" d="M334.1,112.9c0-0.3,0.1-0.6,0.3-0.8c0.2-0.2,0.5-0.3,0.8-0.3c0.3,0,0.6,0.1,0.8,0.3c0.2,0.2,0.3,0.5,0.3,0.8
		s-0.1,0.6-0.3,0.8c-0.2,0.2-0.5,0.3-0.8,0.3c-0.3,0-0.6-0.1-0.8-0.3C334.2,113.5,334.1,113.3,334.1,112.9z M334.3,115h2v6.6h-2V115
		z"/>
	<path class="st2" d="M344.8,121.7H343v-0.9h0c-0.1,0.1-0.2,0.2-0.3,0.4s-0.3,0.2-0.5,0.3c-0.2,0.1-0.4,0.2-0.6,0.2
		s-0.4,0.1-0.7,0.1c-0.5,0-0.9-0.1-1.3-0.3s-0.7-0.4-1-0.7c-0.3-0.3-0.5-0.7-0.7-1.1c-0.2-0.4-0.2-0.9-0.2-1.4
		c0-0.5,0.1-0.9,0.2-1.3c0.1-0.4,0.3-0.8,0.6-1.1c0.3-0.3,0.6-0.6,0.9-0.8c0.4-0.2,0.8-0.3,1.3-0.3c0.4,0,0.8,0.1,1.2,0.2
		c0.4,0.1,0.7,0.4,0.9,0.7h0v-4.4h2V121.7z M343,118.3c0-0.5-0.1-0.9-0.4-1.2c-0.3-0.3-0.7-0.5-1.2-0.5s-0.9,0.2-1.2,0.5
		s-0.4,0.7-0.4,1.2c0,0.5,0.1,0.9,0.4,1.2s0.7,0.5,1.2,0.5s0.9-0.2,1.2-0.5C342.8,119.2,343,118.8,343,118.3z"/>
	<path class="st2" d="M352.9,120.5c-0.3,0.4-0.7,0.7-1.2,1c-0.5,0.2-1,0.3-1.6,0.3c-0.5,0-1-0.1-1.4-0.2s-0.8-0.4-1.2-0.7
		s-0.6-0.7-0.8-1.1c-0.2-0.4-0.3-0.9-0.3-1.4c0-0.5,0.1-1,0.3-1.4c0.2-0.4,0.5-0.8,0.8-1.1c0.3-0.3,0.7-0.5,1.2-0.7
		c0.5-0.2,0.9-0.2,1.4-0.2c0.5,0,0.9,0.1,1.3,0.2c0.4,0.2,0.7,0.4,1,0.7c0.3,0.3,0.5,0.7,0.6,1.1s0.2,0.9,0.2,1.4v0.6h-4.7
		c0.1,0.4,0.3,0.7,0.5,0.9c0.3,0.2,0.6,0.3,1,0.3c0.3,0,0.6-0.1,0.9-0.2c0.2-0.2,0.4-0.3,0.6-0.6L352.9,120.5z M351.1,117.6
		c0-0.3-0.1-0.6-0.3-0.9c-0.2-0.2-0.5-0.4-0.9-0.4c-0.2,0-0.4,0-0.6,0.1c-0.2,0.1-0.3,0.2-0.4,0.3c-0.1,0.1-0.2,0.2-0.3,0.4
		s-0.1,0.3-0.1,0.5H351.1z"/>
	<path class="st2" d="M354.5,115h2v0.9h0c0.1-0.1,0.2-0.3,0.3-0.4s0.3-0.2,0.4-0.3c0.2-0.1,0.4-0.2,0.6-0.2s0.4-0.1,0.7-0.1
		c0.5,0,0.9,0.1,1.3,0.2s0.6,0.4,0.7,0.7c0.2,0.3,0.3,0.6,0.4,1c0.1,0.4,0.1,0.8,0.1,1.2v3.7h-2v-3.2c0-0.2,0-0.4,0-0.6
		c0-0.2-0.1-0.4-0.1-0.6s-0.2-0.3-0.3-0.4c-0.1-0.1-0.3-0.2-0.6-0.2s-0.5,0-0.6,0.1c-0.2,0.1-0.3,0.2-0.4,0.4
		c-0.1,0.2-0.1,0.3-0.2,0.5s0,0.4,0,0.6v3.3h-2V115z"/>
	<path class="st2" d="M367,116.7h-1.8v2.2c0,0.2,0,0.3,0,0.5c0,0.2,0.1,0.3,0.1,0.4c0.1,0.1,0.2,0.2,0.3,0.3
		c0.1,0.1,0.3,0.1,0.5,0.1c0.1,0,0.3,0,0.4,0s0.3-0.1,0.4-0.2v1.7c-0.2,0.1-0.5,0.1-0.7,0.2c-0.2,0-0.5,0-0.7,0c-0.3,0-0.7,0-1-0.1
		c-0.3-0.1-0.5-0.2-0.8-0.3c-0.2-0.2-0.4-0.4-0.5-0.6s-0.2-0.6-0.2-0.9v-3.2h-1.3V115h1.3v-2h2v2h1.8V116.7z"/>
	<path class="st2" d="M368,112.9c0-0.3,0.1-0.6,0.3-0.8c0.2-0.2,0.5-0.3,0.8-0.3c0.3,0,0.6,0.1,0.8,0.3c0.2,0.2,0.3,0.5,0.3,0.8
		s-0.1,0.6-0.3,0.8c-0.2,0.2-0.5,0.3-0.8,0.3c-0.3,0-0.6-0.1-0.8-0.3C368.1,113.5,368,113.3,368,112.9z M368.2,115h2v6.6h-2V115z"/>
	<path class="st2" d="M372.5,116.7h-1.4V115h1.4v-1.2c0-0.4,0-0.7,0.1-1c0.1-0.3,0.2-0.6,0.4-0.9c0.2-0.2,0.4-0.4,0.8-0.6
		s0.8-0.2,1.3-0.2c0.2,0,0.4,0,0.6,0c0.2,0,0.4,0.1,0.6,0.1l-0.1,1.7c-0.1,0-0.2-0.1-0.3-0.1c-0.1,0-0.2,0-0.3,0
		c-0.3,0-0.6,0.1-0.7,0.2c-0.2,0.1-0.2,0.4-0.2,0.9v1.1h1.5v1.6h-1.5v5h-2V116.7z"/>
	<path class="st2" d="M380.8,122.7c-0.1,0.4-0.3,0.7-0.4,0.9c-0.1,0.3-0.3,0.5-0.5,0.7s-0.4,0.3-0.7,0.4c-0.3,0.1-0.7,0.1-1.2,0.1
		c-0.5,0-1-0.1-1.5-0.2l0.3-1.7c0.3,0.1,0.6,0.2,1,0.2c0.2,0,0.4,0,0.6-0.1s0.3-0.1,0.4-0.2c0.1-0.1,0.2-0.2,0.2-0.3
		s0.1-0.3,0.2-0.5l0.2-0.4l-2.9-6.7h2.2l1.7,4.4h0l1.5-4.4h2.1L380.8,122.7z"/>
	<path class="st2" d="M388,115h2.2l1.4,4.2h0l1.1-4.2h2.2l1.2,4.2h0l1.2-4.2h2.1l-2.4,6.6h-2l-1.4-4.4h0l-1.2,4.4h-2.1L388,115z"/>
	<path class="st2" d="M402.3,111.3v4.6h0c0-0.1,0.1-0.3,0.2-0.4c0.1-0.1,0.2-0.2,0.4-0.3c0.2-0.1,0.3-0.2,0.5-0.2
		c0.2-0.1,0.4-0.1,0.7-0.1c0.5,0,0.9,0.1,1.3,0.2s0.6,0.4,0.7,0.7c0.2,0.3,0.3,0.6,0.4,1c0.1,0.4,0.1,0.8,0.1,1.2v3.7h-2v-3.2
		c0-0.2,0-0.4,0-0.6c0-0.2-0.1-0.4-0.1-0.6s-0.2-0.3-0.3-0.4c-0.1-0.1-0.3-0.2-0.6-0.2c-0.3,0-0.5,0-0.6,0.1
		c-0.2,0.1-0.3,0.2-0.4,0.4c-0.1,0.2-0.1,0.3-0.2,0.5s0,0.4,0,0.6v3.3h-2v-10.3H402.3z"/>
	<path class="st2" d="M408,118.3c0-0.5,0.1-1,0.3-1.4c0.2-0.4,0.5-0.8,0.8-1.1c0.3-0.3,0.7-0.5,1.2-0.7c0.5-0.2,0.9-0.2,1.4-0.2
		c0.5,0,1,0.1,1.4,0.2c0.5,0.2,0.8,0.4,1.2,0.7c0.3,0.3,0.6,0.7,0.8,1.1s0.3,0.9,0.3,1.4c0,0.5-0.1,1-0.3,1.4s-0.5,0.8-0.8,1.1
		c-0.3,0.3-0.7,0.5-1.2,0.7s-0.9,0.2-1.4,0.2c-0.5,0-1-0.1-1.4-0.2c-0.5-0.2-0.8-0.4-1.2-0.7s-0.6-0.7-0.8-1.1
		C408.1,119.3,408,118.9,408,118.3z M410,118.3c0,0.5,0.1,0.9,0.4,1.2s0.7,0.5,1.2,0.5s0.9-0.2,1.2-0.5c0.3-0.3,0.4-0.7,0.4-1.2
		c0-0.5-0.1-0.9-0.4-1.2c-0.3-0.3-0.7-0.5-1.2-0.5s-0.9,0.2-1.2,0.5S410,117.8,410,118.3z"/>
</g>
<g class="st1">
	<path class="st2" d="M271.3,134.7h-1.8v2.2c0,0.2,0,0.3,0,0.5c0,0.2,0.1,0.3,0.1,0.4c0.1,0.1,0.2,0.2,0.3,0.3
		c0.1,0.1,0.3,0.1,0.5,0.1c0.1,0,0.3,0,0.4,0c0.2,0,0.3-0.1,0.4-0.2v1.7c-0.2,0.1-0.5,0.1-0.7,0.2c-0.2,0-0.5,0-0.7,0
		c-0.3,0-0.7,0-1-0.1c-0.3-0.1-0.5-0.2-0.8-0.3c-0.2-0.2-0.4-0.4-0.5-0.6c-0.1-0.3-0.2-0.6-0.2-0.9v-3.2h-1.3V133h1.3v-2h2v2h1.8
		V134.7z"/>
	<path class="st2" d="M274.5,129.3v4.6h0c0-0.1,0.1-0.3,0.2-0.4s0.2-0.2,0.4-0.3c0.2-0.1,0.3-0.2,0.5-0.2s0.4-0.1,0.7-0.1
		c0.5,0,0.9,0.1,1.3,0.2s0.6,0.4,0.7,0.7c0.2,0.3,0.3,0.6,0.4,1c0.1,0.4,0.1,0.8,0.1,1.2v3.7h-2v-3.2c0-0.2,0-0.4,0-0.6
		c0-0.2-0.1-0.4-0.1-0.6s-0.2-0.3-0.3-0.4c-0.1-0.1-0.3-0.2-0.6-0.2s-0.5,0-0.6,0.1c-0.2,0.1-0.3,0.2-0.4,0.4
		c-0.1,0.2-0.1,0.3-0.2,0.5s0,0.4,0,0.6v3.3h-2v-10.3H274.5z"/>
	<path class="st2" d="M286.6,138.5c-0.3,0.4-0.7,0.7-1.2,1c-0.5,0.2-1,0.3-1.6,0.3c-0.5,0-1-0.1-1.4-0.2s-0.8-0.4-1.2-0.7
		s-0.6-0.7-0.8-1.1c-0.2-0.4-0.3-0.9-0.3-1.4c0-0.5,0.1-1,0.3-1.4c0.2-0.4,0.5-0.8,0.8-1.1c0.3-0.3,0.7-0.5,1.2-0.7
		c0.5-0.2,0.9-0.2,1.4-0.2c0.5,0,0.9,0.1,1.3,0.2c0.4,0.2,0.7,0.4,1,0.7c0.3,0.3,0.5,0.7,0.6,1.1s0.2,0.9,0.2,1.4v0.6h-4.7
		c0.1,0.4,0.3,0.7,0.5,0.9c0.3,0.2,0.6,0.3,1,0.3c0.3,0,0.6-0.1,0.9-0.2c0.2-0.2,0.4-0.3,0.6-0.6L286.6,138.5z M284.9,135.6
		c0-0.3-0.1-0.6-0.3-0.9c-0.2-0.2-0.5-0.4-0.9-0.4c-0.2,0-0.4,0-0.6,0.1c-0.2,0.1-0.3,0.2-0.4,0.3c-0.1,0.1-0.2,0.2-0.3,0.4
		s-0.1,0.3-0.1,0.5H284.9z"/>
	<path class="st2" d="M288.2,130.9c0-0.3,0.1-0.6,0.3-0.8c0.2-0.2,0.5-0.3,0.8-0.3c0.3,0,0.6,0.1,0.8,0.3c0.2,0.2,0.3,0.5,0.3,0.8
		s-0.1,0.6-0.3,0.8c-0.2,0.2-0.5,0.3-0.8,0.3c-0.3,0-0.6-0.1-0.8-0.3C288.3,131.5,288.2,131.3,288.2,130.9z M288.3,133h2v6.6h-2V133
		z"/>
	<path class="st2" d="M292,133h2v1.1h0c0.2-0.4,0.5-0.7,0.8-0.9c0.3-0.2,0.7-0.3,1.1-0.3c0.1,0,0.2,0,0.4,0c0.1,0,0.2,0,0.3,0.1v1.9
		c-0.1,0-0.3-0.1-0.4-0.1c-0.1,0-0.3,0-0.4,0c-0.4,0-0.7,0.1-0.9,0.2c-0.2,0.1-0.4,0.3-0.5,0.5c-0.1,0.2-0.2,0.4-0.2,0.7
		c0,0.3-0.1,0.6-0.1,0.9v2.8h-2V133z"/>
	<path class="st2" d="M310.8,139c-0.6,0.3-1.3,0.6-2,0.7s-1.4,0.2-2.1,0.2c-0.8,0-1.5-0.1-2.1-0.4s-1.2-0.6-1.7-1
		c-0.5-0.4-0.8-1-1.1-1.6c-0.3-0.6-0.4-1.3-0.4-2.1c0-0.8,0.1-1.5,0.4-2.1c0.3-0.6,0.6-1.2,1.1-1.6c0.5-0.4,1-0.8,1.7-1
		c0.6-0.2,1.3-0.4,2.1-0.4c0.8,0,1.5,0.1,2.1,0.3s1.2,0.5,1.7,1l-1.5,1.6c-0.3-0.3-0.6-0.5-1-0.7c-0.4-0.2-0.8-0.2-1.4-0.2
		c-0.5,0-0.9,0.1-1.2,0.2c-0.4,0.2-0.7,0.4-0.9,0.6c-0.3,0.3-0.5,0.6-0.6,1c-0.1,0.4-0.2,0.8-0.2,1.2c0,0.5,0.1,0.9,0.2,1.2
		c0.1,0.4,0.3,0.7,0.6,1c0.3,0.3,0.6,0.5,0.9,0.6c0.4,0.2,0.8,0.2,1.2,0.2c0.5,0,0.9-0.1,1.2-0.2c0.3-0.1,0.6-0.2,0.8-0.3v-1.6H307
		v-2h3.8V139z"/>
	<path class="st2" d="M312.7,130h3.6c0.5,0,1,0,1.4,0.1c0.4,0.1,0.8,0.2,1.2,0.5c0.3,0.2,0.6,0.5,0.8,0.9c0.2,0.4,0.3,0.9,0.3,1.4
		c0,0.6-0.1,1-0.3,1.4c-0.2,0.4-0.4,0.7-0.8,0.9c-0.3,0.2-0.7,0.4-1.1,0.5c-0.4,0.1-0.9,0.1-1.4,0.1h-1.6v3.8h-2.1V130z
		 M314.9,134.1h1.4c0.2,0,0.4,0,0.6-0.1c0.2,0,0.3-0.1,0.5-0.2c0.1-0.1,0.3-0.2,0.3-0.4c0.1-0.2,0.1-0.3,0.1-0.6
		c0-0.2-0.1-0.4-0.2-0.6c-0.1-0.1-0.3-0.3-0.4-0.3c-0.2-0.1-0.4-0.1-0.6-0.2c-0.2,0-0.4,0-0.6,0h-1.1V134.1z"/>
	<path class="st2" d="M320.9,134.8c0-0.8,0.1-1.5,0.4-2.1c0.3-0.6,0.6-1.2,1.1-1.6c0.5-0.4,1-0.8,1.7-1c0.6-0.2,1.3-0.4,2.1-0.4
		s1.5,0.1,2.1,0.4c0.6,0.2,1.2,0.6,1.7,1s0.8,1,1.1,1.6c0.3,0.6,0.4,1.3,0.4,2.1c0,0.8-0.1,1.5-0.4,2.1c-0.3,0.6-0.6,1.2-1.1,1.6
		s-1,0.8-1.7,1s-1.3,0.4-2.1,0.4s-1.5-0.1-2.1-0.4s-1.2-0.6-1.7-1c-0.5-0.4-0.8-1-1.1-1.6C321.1,136.3,320.9,135.6,320.9,134.8z
		 M323.1,134.8c0,0.5,0.1,0.9,0.2,1.2c0.1,0.4,0.3,0.7,0.6,1c0.3,0.3,0.6,0.5,0.9,0.6c0.4,0.2,0.8,0.2,1.2,0.2s0.9-0.1,1.2-0.2
		c0.4-0.2,0.7-0.4,0.9-0.6s0.5-0.6,0.6-1c0.1-0.4,0.2-0.8,0.2-1.2c0-0.4-0.1-0.9-0.2-1.2c-0.1-0.4-0.3-0.7-0.6-1s-0.6-0.5-0.9-0.6
		s-0.8-0.2-1.2-0.2s-0.9,0.1-1.2,0.2c-0.4,0.2-0.7,0.4-0.9,0.6c-0.3,0.3-0.5,0.6-0.6,1C323.2,134,323.1,134.4,323.1,134.8z"/>
	<path class="st2" d="M337,133h1.9v0.9h0c0.1-0.1,0.2-0.2,0.3-0.4c0.1-0.1,0.3-0.2,0.5-0.3c0.2-0.1,0.4-0.2,0.6-0.2
		c0.2-0.1,0.4-0.1,0.7-0.1c0.5,0,0.9,0.1,1.3,0.3c0.4,0.2,0.7,0.4,1,0.7c0.3,0.3,0.5,0.7,0.7,1.1c0.2,0.4,0.2,0.9,0.2,1.4
		c0,0.5-0.1,0.9-0.2,1.3c-0.1,0.4-0.3,0.8-0.6,1.1c-0.3,0.3-0.6,0.6-0.9,0.8s-0.8,0.3-1.3,0.3c-0.4,0-0.8-0.1-1.2-0.2
		s-0.7-0.4-0.9-0.7h0v3.8h-2V133z M338.9,136.3c0,0.5,0.1,0.9,0.4,1.2c0.3,0.3,0.7,0.5,1.2,0.5s0.9-0.2,1.2-0.5
		c0.3-0.3,0.4-0.7,0.4-1.2c0-0.5-0.1-0.9-0.4-1.2c-0.3-0.3-0.7-0.5-1.2-0.5s-0.9,0.2-1.2,0.5C339,135.4,338.9,135.8,338.9,136.3z"/>
</g>
<g class="st1">
	<path class="st2" d="M345.5,133h2v1.1h0c0.2-0.4,0.5-0.7,0.8-0.9c0.3-0.2,0.7-0.3,1.1-0.3c0.1,0,0.2,0,0.4,0c0.1,0,0.2,0,0.3,0.1
		v1.9c-0.1,0-0.3-0.1-0.4-0.1c-0.1,0-0.3,0-0.4,0c-0.4,0-0.7,0.1-0.9,0.2c-0.2,0.1-0.4,0.3-0.5,0.5c-0.1,0.2-0.2,0.4-0.2,0.7
		c0,0.3-0.1,0.6-0.1,0.9v2.8h-2V133z"/>
</g>
<g class="st1">
	<path class="st2" d="M350.7,136.3c0-0.5,0.1-1,0.3-1.4c0.2-0.4,0.5-0.8,0.8-1.1c0.3-0.3,0.7-0.5,1.2-0.7c0.5-0.2,0.9-0.2,1.4-0.2
		c0.5,0,1,0.1,1.4,0.2c0.5,0.2,0.8,0.4,1.2,0.7c0.3,0.3,0.6,0.7,0.8,1.1s0.3,0.9,0.3,1.4c0,0.5-0.1,1-0.3,1.4s-0.5,0.8-0.8,1.1
		c-0.3,0.3-0.7,0.5-1.2,0.7s-0.9,0.2-1.4,0.2c-0.5,0-1-0.1-1.4-0.2c-0.5-0.2-0.8-0.4-1.2-0.7s-0.6-0.7-0.8-1.1
		C350.8,137.3,350.7,136.9,350.7,136.3z M352.7,136.3c0,0.5,0.1,0.9,0.4,1.2s0.7,0.5,1.2,0.5s0.9-0.2,1.2-0.5
		c0.3-0.3,0.4-0.7,0.4-1.2c0-0.5-0.1-0.9-0.4-1.2c-0.3-0.3-0.7-0.5-1.2-0.5s-0.9,0.2-1.2,0.5S352.7,135.8,352.7,136.3z"/>
	<path class="st2" d="M358.7,133h2.2l1.7,4.5h0l1.6-4.5h2.1l-2.6,6.6h-2.2L358.7,133z"/>
	<path class="st2" d="M366.9,130.9c0-0.3,0.1-0.6,0.3-0.8c0.2-0.2,0.5-0.3,0.8-0.3c0.3,0,0.6,0.1,0.8,0.3c0.2,0.2,0.3,0.5,0.3,0.8
		s-0.1,0.6-0.3,0.8c-0.2,0.2-0.5,0.3-0.8,0.3c-0.3,0-0.6-0.1-0.8-0.3C367,131.5,366.9,131.3,366.9,130.9z M367.1,133h2v6.6h-2V133z"
		/>
	<path class="st2" d="M377.7,139.7h-1.9v-0.9h0c-0.1,0.1-0.2,0.2-0.3,0.4s-0.3,0.2-0.5,0.3c-0.2,0.1-0.4,0.2-0.6,0.2
		c-0.2,0.1-0.4,0.1-0.7,0.1c-0.5,0-0.9-0.1-1.3-0.3c-0.4-0.2-0.7-0.4-1-0.7c-0.3-0.3-0.5-0.7-0.7-1.1c-0.2-0.4-0.2-0.9-0.2-1.4
		c0-0.5,0.1-0.9,0.2-1.3c0.1-0.4,0.3-0.8,0.6-1.1c0.3-0.3,0.6-0.6,0.9-0.8c0.4-0.2,0.8-0.3,1.3-0.3c0.4,0,0.8,0.1,1.2,0.2
		s0.7,0.4,0.9,0.7h0v-4.4h2V139.7z M375.8,136.3c0-0.5-0.1-0.9-0.4-1.2c-0.3-0.3-0.7-0.5-1.2-0.5s-0.9,0.2-1.2,0.5
		c-0.3,0.3-0.4,0.7-0.4,1.2c0,0.5,0.1,0.9,0.4,1.2c0.3,0.3,0.7,0.5,1.2,0.5s0.9-0.2,1.2-0.5C375.6,137.2,375.8,136.8,375.8,136.3z"
		/>
	<path class="st2" d="M385.7,138.5c-0.3,0.4-0.7,0.7-1.2,1c-0.5,0.2-1,0.3-1.6,0.3c-0.5,0-1-0.1-1.4-0.2c-0.5-0.2-0.8-0.4-1.2-0.7
		c-0.3-0.3-0.6-0.7-0.8-1.1c-0.2-0.4-0.3-0.9-0.3-1.4c0-0.5,0.1-1,0.3-1.4c0.2-0.4,0.5-0.8,0.8-1.1c0.3-0.3,0.7-0.5,1.2-0.7
		c0.5-0.2,0.9-0.2,1.4-0.2c0.5,0,0.9,0.1,1.3,0.2c0.4,0.2,0.7,0.4,1,0.7c0.3,0.3,0.5,0.7,0.6,1.1s0.2,0.9,0.2,1.4v0.6h-4.7
		c0.1,0.4,0.3,0.7,0.5,0.9c0.3,0.2,0.6,0.3,1,0.3c0.3,0,0.6-0.1,0.9-0.2c0.2-0.2,0.4-0.3,0.6-0.6L385.7,138.5z M384,135.6
		c0-0.3-0.1-0.6-0.3-0.9c-0.2-0.2-0.5-0.4-0.9-0.4c-0.2,0-0.4,0-0.6,0.1c-0.2,0.1-0.3,0.2-0.4,0.3c-0.1,0.1-0.2,0.2-0.3,0.4
		c-0.1,0.2-0.1,0.3-0.1,0.5H384z"/>
	<path class="st2" d="M387.4,133h2v1.1h0c0.2-0.4,0.5-0.7,0.8-0.9c0.3-0.2,0.7-0.3,1.1-0.3c0.1,0,0.2,0,0.4,0c0.1,0,0.2,0,0.3,0.1
		v1.9c-0.1,0-0.3-0.1-0.4-0.1c-0.1,0-0.3,0-0.4,0c-0.4,0-0.7,0.1-0.9,0.2c-0.2,0.1-0.4,0.3-0.5,0.5c-0.1,0.2-0.2,0.4-0.2,0.7
		c0,0.3-0.1,0.6-0.1,0.9v2.8h-2V133z"/>
	<path class="st2" d="M396.4,133h2.2l1.4,4.2h0l1.1-4.2h2.2l1.2,4.2h0l1.2-4.2h2.1l-2.4,6.6h-2l-1.4-4.4h0l-1.2,4.4h-2.1L396.4,133z
		"/>
	<path class="st2" d="M412.8,138.8L412.8,138.8c-0.3,0.4-0.6,0.6-0.9,0.8s-0.8,0.2-1.2,0.2c-0.3,0-0.6,0-0.9-0.1
		c-0.3-0.1-0.5-0.2-0.8-0.4c-0.2-0.2-0.4-0.4-0.5-0.6c-0.1-0.3-0.2-0.6-0.2-0.9c0-0.4,0.1-0.7,0.2-1c0.1-0.3,0.3-0.5,0.6-0.7
		c0.2-0.2,0.5-0.3,0.8-0.4c0.3-0.1,0.6-0.2,1-0.2s0.7-0.1,1-0.1c0.3,0,0.6,0,0.9,0c0-0.4-0.1-0.7-0.4-0.9c-0.3-0.2-0.6-0.3-0.9-0.3
		c-0.3,0-0.6,0.1-0.9,0.2c-0.3,0.1-0.5,0.3-0.7,0.6l-1.1-1.1c0.4-0.4,0.8-0.6,1.3-0.8c0.5-0.2,1-0.3,1.6-0.3c0.6,0,1.1,0.1,1.5,0.2
		c0.4,0.1,0.7,0.4,0.9,0.7c0.2,0.3,0.4,0.6,0.5,1.1c0.1,0.4,0.1,0.9,0.1,1.5v3.4h-1.9V138.8z M412.3,136.7c-0.2,0-0.3,0-0.6,0
		c-0.2,0-0.5,0.1-0.7,0.1c-0.2,0.1-0.4,0.2-0.5,0.3c-0.2,0.1-0.2,0.3-0.2,0.5c0,0.2,0.1,0.4,0.3,0.5c0.2,0.1,0.4,0.2,0.7,0.2
		c0.2,0,0.4,0,0.6-0.1c0.2-0.1,0.4-0.1,0.5-0.2c0.1-0.1,0.3-0.2,0.3-0.4c0.1-0.2,0.1-0.3,0.1-0.5v-0.4H412.3z"/>
	<path class="st2" d="M419.8,135c-0.3-0.4-0.7-0.6-1.2-0.6c-0.2,0-0.3,0-0.5,0.1s-0.2,0.2-0.2,0.4c0,0.2,0.1,0.3,0.3,0.4
		c0.2,0.1,0.4,0.1,0.6,0.2c0.3,0.1,0.5,0.1,0.8,0.2s0.6,0.2,0.8,0.3c0.3,0.1,0.5,0.3,0.6,0.6s0.3,0.6,0.3,1c0,0.4-0.1,0.8-0.3,1.1
		s-0.4,0.5-0.7,0.7c-0.3,0.2-0.6,0.3-1,0.4c-0.4,0.1-0.7,0.1-1.1,0.1c-0.5,0-0.9-0.1-1.4-0.2c-0.5-0.1-0.9-0.4-1.2-0.7l1.2-1.4
		c0.2,0.2,0.4,0.4,0.6,0.5s0.5,0.2,0.8,0.2c0.2,0,0.5,0,0.6-0.1c0.2-0.1,0.3-0.2,0.3-0.4c0-0.2-0.1-0.3-0.3-0.4
		c-0.2-0.1-0.4-0.2-0.6-0.2c-0.3-0.1-0.5-0.1-0.8-0.2s-0.6-0.2-0.8-0.3c-0.3-0.1-0.5-0.3-0.6-0.6c-0.2-0.2-0.3-0.6-0.3-1
		c0-0.4,0.1-0.7,0.2-1s0.4-0.5,0.6-0.7c0.3-0.2,0.6-0.3,0.9-0.4c0.3-0.1,0.7-0.1,1-0.1c0.4,0,0.9,0.1,1.3,0.2
		c0.4,0.1,0.8,0.4,1.1,0.7L419.8,135z"/>
</g>
<g>
	<circle class="st4" cx="289.9" cy="243.4" r="62"/>
</g>
<g>
	<path class="st2" d="M289.9,221.3l18.6,41.4l-18.7-9l-18.6,9c0.4-0.9,17.3-38.6,18.6-41.4 M321.2,271.1l-29.1-64.3
		c-0.4-0.6-1-1-1.6-1.1h-1c-0.7,0.1-1.3,0.5-1.6,1.1l-29.3,64.3c-0.4,0.8-0.1,1.8,0.7,2.3c0.3,0.2,0.6,0.2,0.9,0.2h6l0.8-0.2
		l22.9-11l22.8,11c0.3,0.2,0.7,0.2,1.1,0.2h5.9c0.9,0.1,1.7-0.6,1.8-1.6C321.4,271.7,321.4,271.3,321.2,271.1"/>
</g>
</svg>
