<?xml version="1.0" encoding="utf-8"?>
<!-- Generator: Adobe Illustrator 24.2.1, SVG Export Plug-In . SVG Version: 6.00 Build 0)  -->
<svg version="1.1" id="Layer_1" xmlns="http://www.w3.org/2000/svg" xmlns:xlink="http://www.w3.org/1999/xlink" x="0px" y="0px"
	 viewBox="0 0 408 210.1" style="enable-background:new 0 0 408 210.1;" xml:space="preserve">
<style type="text/css">
	.st0{enable-background:new    ;}
	.st1{fill:#FBAB44;}
	.st2{fill:#3754A5;}
	.st3{fill:#4FBE9B;}
</style>
<g class="st0">
	<path class="st1" d="M79,58.5c0,4.5,2.3,5.6,9.9,6v3.6h-33v-3.6c5.7-0.6,6.3-1.3,6.3-5.7V17.3c0-4.5-0.5-5.1-6.3-5.7V8h48.4
		l0.4,17.1h-3C97,15.4,94.8,12,87,12h-8.1v23.4h7.5c4,0,5-2.1,5.7-8h3.7v20.7h-3.7c-0.8-5.8-1.7-8-5.7-8h-7.5L79,58.5L79,58.5z"/>
</g>
<g class="st0">
	<path class="st1" d="M146.6,58.7c0,2.1,0.3,3.9,2.3,3.9c1.2,0,2.3-0.3,2.9-0.5l0.6,2.3c-2.8,2.8-6.5,4.6-11.3,4.6
		c-5,0-8.6-2.7-9.9-7.2c-2.5,3.6-6.6,6.9-12.9,6.9c-7.2,0-12.3-4.1-12.3-11.5c0-7.5,5.2-10.5,11.3-12.7l13.6-4.8V31
		c0-3.9-1.1-6.6-4.5-6.6c-3.3,0-4.6,2.7-4.6,6.8c0,2,0.3,3.9,0.8,6l-9.5,1.3c-2.5-0.9-4.2-2.9-4.2-6c0-7.8,8.1-11.4,18.4-11.4
		c12,0,19.2,3.8,19.2,14.9L146.6,58.7L146.6,58.7z M131,59.3V43.4l-4.7,1.8c-3,1.1-5,2.7-5,7.6c0,4.4,1.6,7.6,5.9,7.6
		C128.6,60.5,129.6,60.1,131,59.3z"/>
	<path class="st1" d="M175.3,61.4c0,2.7,1.4,3.1,4.8,3.3V68h-25.4v-3.3c3.4-0.3,4.8-0.6,4.8-3.3V31.3l-4.7-2.9V26l17.8-5h2.7V61.4z
		 M159.2,9.3c0-4.3,3.1-7.9,8.4-7.9c5.1,0,8.4,3.6,8.4,7.9s-3.3,8-8.4,8C162.3,17.3,159.2,13.6,159.2,9.3z"/>
	<path class="st1" d="M204.6,60.2c0,3.7,2,4,6.9,4.6v3.3h-27.4v-3.3c3.4-0.3,4.8-0.6,4.8-3.3V31.4l-4.7-2.9v-2.4l17.9-5h2.9
		l-0.3,13.2c3.5-10,6.5-13.2,11.9-13.2c2,0,3.4,0.6,4.3,1.5v11.9h-2.1c-5.4,0-10.2,0.2-14.1,3.1L204.6,60.2L204.6,60.2z"/>
</g>
<g class="st0">
	<path class="st2" d="M126.7,135.5c0,4.6,1.9,5.7,6.6,5.7h2.4c5.7,0,8.8-3.3,16.5-16.3h3.7l-3.3,20.3h-49v-3.6
		c5.7-0.6,6.3-1.3,6.3-5.7V94.4c0-4.5-0.5-5.1-6.3-5.7v-3.6h29.2v3.6c-5.7,0.6-6.2,1.3-6.2,5.7v41.1H126.7z"/>
</g>
<g class="st0">
	<path class="st2" d="M160,123.1c0-14.4,9.9-24.9,24-24.9s23.9,9,23.9,23.1c0,14.4-9.9,24.9-24,24.9
		C169.7,146.1,160,137.1,160,123.1z M191.1,125c0-14.1-2-23.2-7.5-23.2c-5.1,0-6.8,6.6-6.8,17.5c0,14.1,2.1,23.2,7.5,23.2
		C189.5,142.5,191.1,135.9,191.1,125z"/>
</g>
<g class="st0">
	<path class="st2" d="M223.2,127.7c-1.4,1.2-2.5,2.6-2.5,4.3c0,1.5,0.9,2.5,2.6,2.5h18.6c11.6,0,16.5,5,16.5,12.8
		c0,11.1-10.6,17.1-26.2,17.1c-13.5,0-21.9-3.7-21.9-10.5c0-4.3,4.1-6.3,7.9-6.9c-3.6-1.4-5.7-4.9-5.7-8.6c0-5.6,3.9-9.2,8.4-11.6
		c-4.7-2.2-8.1-6.1-8.1-12.3c0-10.3,8.7-16.3,20.5-16.3c3.4,0,5.9,0.5,8.1,1.2l15.3-0.3v5.7h-3.9l-5.2-0.2c3.1,2.1,5.3,5.4,5.3,9.7
		c0,9.5-8.7,14.8-20.2,14.8C229.5,129.2,226.2,128.7,223.2,127.7z M220,148.9c-0.6,0.7-0.8,1.9-0.8,3.2c0,5.2,5.4,8.3,13.5,8.3
		c7.7,0,14.8-2.1,14.8-7.6c0-2.7-1.7-3.9-4.9-3.9H220z M238.3,114.2c0-6.5-1.7-12.3-5.7-12.3c-3.9,0-5.1,4.2-5.1,11.3
		c0,6.9,1.9,12.7,5.8,12.7C237.1,125.8,238.3,121.6,238.3,114.2z"/>
	<path class="st2" d="M281.4,138.6c0,2.7,1.4,3.1,4.8,3.3v3.3h-25.4v-3.3c3.4-0.3,4.8-0.6,4.8-3.3v-30.1l-4.7-2.9v-2.4l17.8-5h2.7
		L281.4,138.6L281.4,138.6z M265.3,86.5c0-4.3,3.1-7.9,8.4-7.9c5.1,0,8.4,3.6,8.4,7.9c0,4.3-3.3,8-8.4,8
		C268.3,94.4,265.3,90.7,265.3,86.5z"/>
</g>
<g class="st0">
	<path class="st2" d="M317.2,135.4c5.1,0,8.7-1.7,11.4-5.7l1.9,1.2c-2.8,10.5-9.8,15.2-19.4,15.2c-11.9,0-21.1-8.5-21.1-22.5
		c0-14.5,9.3-25.4,23.5-25.4c8.7,0,15.7,3.3,15.7,10.9c0,3.3-1.9,5.4-3.8,6.3h-8.1c0.3-1.9,0.3-3.3,0.3-4.9c0-5-1.4-8.4-5.5-8.4
		c-5.3,0-8.4,6.8-8.4,15.6C303.8,128.6,308.6,135.4,317.2,135.4z"/>
</g>
<g class="st0">
	<path class="st2" d="M374.7,135.8c0,2.1,0.3,3.9,2.3,3.9c1.2,0,2.3-0.3,2.9-0.5l0.6,2.3c-2.8,2.8-6.5,4.6-11.3,4.6
		c-5,0-8.6-2.7-9.9-7.2c-2.5,3.6-6.6,6.9-12.9,6.9c-7.2,0-12.3-4.1-12.3-11.5c0-7.5,5.2-10.5,11.3-12.7l13.6-4.8v-8.6
		c0-3.9-1.1-6.6-4.5-6.6c-3.4,0-4.6,2.7-4.6,6.8c0,2,0.3,3.9,0.8,6l-9.5,1.3c-2.5-0.9-4.2-2.9-4.2-6c0-7.8,8.1-11.4,18.4-11.4
		c12,0,19.2,3.8,19.2,14.9v22.6H374.7z M359.1,136.4v-15.9l-4.7,1.8c-3,1.1-5,2.7-5,7.6c0,4.4,1.6,7.6,5.9,7.6
		C356.7,137.6,357.8,137.2,359.1,136.4z"/>
	<path class="st2" d="M403.2,138.6c0,2.7,1.4,3.1,4.8,3.3v3.3h-25.5v-3.3c3.4-0.3,4.8-0.6,4.8-3.3V87.1l-4.7-2.4v-2.6l17.9-3.9h2.7
		L403.2,138.6L403.2,138.6z"/>
</g>
<g class="st0">
	<path class="st3" d="M23.1,199.8c0,4.5,2.3,5.6,9.9,6v3.6H0v-3.6c5.7-0.6,6.3-1.3,6.3-5.7v-41.5c0-4.5-0.5-5.1-6.3-5.7v-3.7h48.4
		l0.4,17.1h-3c-4.7-9.7-6.9-13.1-14.7-13.1H23v23.4h7.5c4,0,5-2.1,5.7-8h3.7v20.7h-3.7c-0.8-5.8-1.7-8-5.7-8H23L23.1,199.8
		L23.1,199.8z"/>
</g>
<g class="st0">
	<path class="st3" d="M73,201.5c0,3.7,2,4,6.9,4.6v3.3H52.4v-3.3c3.4-0.3,4.8-0.6,4.8-3.3v-30.1l-4.7-2.9v-2.4l17.9-5h2.9L73,175.6
		c3.5-10,6.5-13.2,11.9-13.2c2,0,3.4,0.6,4.3,1.5v11.9h-2.1c-5.4,0-10.2,0.2-14.1,3.1C73,178.9,73,201.5,73,201.5z"/>
</g>
<g class="st0">
	<path class="st3" d="M133.7,181.1v2.1h-27.4c-0.2,10.2,5.5,16.5,13.3,16.5c5.5,0,9.5-2,12.8-6.3l1.6,1c-2.3,9.4-8.9,15.7-19.7,15.7
		c-12.7,0-22.3-8.5-22.3-22.9c0-15.3,10.5-25,22.9-25C127.3,162.4,133.7,170.3,133.7,181.1z M106.4,179.3h13.7
		c0-8.3-1.6-13.4-6.3-13.4C109.1,166,106.8,171.4,106.4,179.3z"/>
</g>
<g class="st0">
	<path class="st3" d="M180.3,181.1v2.1h-27.4c-0.2,10.2,5.5,16.5,13.3,16.5c5.5,0,9.5-2,12.8-6.3l1.6,1c-2.3,9.4-8.9,15.7-19.7,15.7
		c-12.7,0-22.3-8.5-22.3-22.9c0-15.3,10.5-25,22.9-25C174,162.4,180.3,170.3,180.3,181.1z M153,179.3h13.7c0-8.3-1.6-13.4-6.3-13.4
		C155.8,166,153.5,171.4,153,179.3z"/>
</g>
</svg>
