<svg id="Layer_1" data-name="Layer 1" xmlns="http://www.w3.org/2000/svg" viewBox="0 0 255.25 106"><defs><style>.cls-1{fill:#004b8d;}.cls-2{fill:#ffcf01;}.cls-3{fill:#8b9dc7;}.cls-4{fill:#4b6ea7;}</style></defs><title>Hopkins_Logo</title><path class="cls-1" d="M109.5,65.436h1.274v5.869H109.31V67.639l-1.582,1.842H107.5l-1.583-1.842v3.666h-1.462V65.436h1.273l1.885,2.177Z"/><path class="cls-1" d="M123.643,71.305h-4.327V65.436h4.267v1.078h-2.8v1.228h2.676v1.076h-2.676v1.411h2.865Z"/><path class="cls-1" d="M134.567,65.436a2.912,2.912,0,0,1,3.244,2.943c0,1.686-1.066,2.926-3.406,2.926h-2.428V65.436Zm-1.127,4.793h.955a1.859,1.859,0,1,0-.017-3.715h-.938Z"/><path class="cls-1" d="M147.628,71.305h-1.463V65.436h1.463Z"/><path class="cls-1" d="M161.677,70.8a4.556,4.556,0,0,1-2.3.584c-2.281,0-3.416-1.481-3.416-2.994,0-1.565,1.281-3.028,3.525-3.028a4.132,4.132,0,0,1,2.125.516v1.309a4.081,4.081,0,0,0-2.021-.6,1.813,1.813,0,1,0-.033,3.578,4.549,4.549,0,0,0,2.125-.646Z"/><path class="cls-1" d="M171.577,71.305h-1.463V65.436h1.463Z"/><path class="cls-1" d="M186.1,71.305h-1.233l-3.242-3.76v3.76h-1.461V65.436h1.34l3.131,3.589V65.436H186.1Z"/><path class="cls-1" d="M198.987,71.305h-4.328V65.436h4.266v1.078h-2.8v1.228H198.8v1.076h-2.676v1.411h2.865Z"/><path class="cls-1" d="M76.136,37.959c0-1.373-.32-1.531-1.182-1.627-1.119-.129-1.309-.1-1.309-.543,0-.224.288-.351.735-.351.606,0,1.723.127,3.032.127,1.564,0,2.107-.127,2.491-.127.477,0,.637.127.637.382,0,.479-.383.287-1.308.512-.989.254-.989.383-.989,5.713V52.93c0,5.554-2.714,8.939-5.556,8.939a1.658,1.658,0,0,1-1.851-1.722,1.217,1.217,0,0,1,1.245-1.342c1.468,0,.926,1.851,1.788,1.851,1.212,0,2.267-2.043,2.267-5.33Z"/><path class="cls-1" d="M87.027,35.039c3.679,0,7.04,4.514,7.04,10.531S90.706,56.1,87.027,56.1s-7.041-4.514-7.041-10.532S83.345,35.039,87.027,35.039Zm0,20.3c2.08,0,4.48-2.529,4.48-9.764s-2.4-9.763-4.48-9.763-4.481,2.529-4.481,9.763S84.946,55.334,87.027,55.334Z"/><path class="cls-1" d="M105.08,37.633c0-.834-.127-1.217-.7-1.313-.767-.129-1.184-.129-1.184-.48,0-.32.289-.416.737-.416.64,0,1.089.127,2.305.127,1.567,0,1.792-.127,2.368-.127.385,0,.48.127.48.287,0,.385-.513.514-1.217.609-.415.065-.672.321-.672.608V53.479c0,.767.192,1.183.544,1.341.609.258,1.25.161,1.25.545,0,.225-.1.352-.514.352-.48,0-1.088-.127-2.3-.127a19.854,19.854,0,0,0-2.048.127c-.7,0-.865-.1-.865-.447,0-.225.16-.289.928-.45.7-.158.9-.447.9-1.312V45.666c0-.191-.063-.318-.256-.318H98.231c-.226,0-.257.127-.257.383v7.748c0,.927.385,1.248.9,1.341.479.1.96.129.96.481,0,.256-.095.416-.609.416a19.415,19.415,0,0,0-2.3-.127c-1.793,0-1.92.127-2.464.127-.352,0-.48-.16-.48-.479,0-.16.128-.32.416-.386,1.345-.286,1.472-.543,1.472-1.44V37.44c0-.8-.127-1.024-.479-1.12-1.088-.289-1.377-.095-1.377-.513,0-.19.065-.383.641-.383.447,0,1.408.127,2.239.127.928,0,1.665-.127,2.241-.127.512,0,.64.127.64.383,0,.449-.319.418-.96.513-.479.065-.832.289-.832.864V44.1c0,.226.065.353.289.353h6.561c.223,0,.256-.095.256-.416Z"/><path class="cls-1" d="M123.316,55.365c0,.9,0,.928-.352.928-.383,0-.32-.352-5.185-9.312-4.322-7.973-4.289-8.485-4.61-8.485-.158,0-.223.1-.223.7V50.469c0,3.135.191,4.193.993,4.351.9.194,1.631.032,1.631.577,0,.257-.192.32-.48.32a16.419,16.419,0,0,0-2.239-.127c-1.6,0-2.049.127-2.561.127-.257,0-.353-.127-.353-.32,0-.383,1.023-.448,1.377-.577.608-.224.734-.894.734-1.855V38.08c0-1.121-.126-1.664-.734-1.76-.8-.129-1.089-.095-1.089-.513,0-.35.448-.383.7-.383.641,0,1.729.064,2.208.064l.642.032c.478.031.607.64.99,1.408l4.577,8.771c2.657,5.088,2.786,5.219,2.913,5.219s.161-.162.161-.449V38.69c0-1.793-.383-2.274-1.121-2.37-.639-.095-1.088-.193-1.088-.513a.4.4,0,0,1,.416-.383c.352,0,.8.127,2.24.127.7,0,1.345-.127,1.953-.127.417,0,.511.1.511.383,0,.384-.318.384-1.087.513-.735.127-.928.639-.928,1.7Z"/><path class="cls-1" d="M129.864,56.1a7.45,7.45,0,0,1-3.743-.8c-.449-.287-.575-.608-.575-3.488,0-2.243.1-2.3.448-2.3.382,0,.382.16.447.48.8,3.938,2.208,5.346,4.1,5.346,2.113,0,3.584-1.889,3.584-4.291,0-5.633-8.45-5.279-8.45-11.234,0-2.625,2.434-4.77,5.442-4.77a6.821,6.821,0,0,1,3.52.961c.193.191.193.385.193,3.041,0,1.664,0,1.729-.32,1.729-.447,0-.354-.512-.545-1.184-.8-2.816-1.951-3.779-3.36-3.779a3.1,3.1,0,0,0-3.009,3.074c0,5.666,8.451,4.8,8.451,11.2C136.044,53.732,133.483,56.1,129.864,56.1Z"/><path class="cls-1" d="M153.616,37.633c0-.834-.129-1.217-.7-1.313-.768-.129-1.186-.129-1.186-.48,0-.32.288-.416.737-.416.64,0,1.088.127,2.305.127,1.568,0,1.792-.127,2.367-.127.386,0,.482.127.482.287,0,.385-.512.514-1.217.609-.418.065-.672.321-.672.608V53.479c0,.767.192,1.183.543,1.341.608.258,1.25.161,1.25.545,0,.225-.095.352-.511.352-.483,0-1.09-.127-2.305-.127a19.976,19.976,0,0,0-2.051.127c-.7,0-.863-.1-.863-.447,0-.225.16-.289.928-.45.705-.158.9-.447.9-1.312V45.666c0-.191-.064-.318-.256-.318h-6.593c-.225,0-.256.127-.256.383v7.748c0,.927.383,1.248.894,1.341.481.1.961.129.961.481,0,.256-.1.416-.607.416a19.5,19.5,0,0,0-2.3-.127c-1.793,0-1.92.127-2.465.127-.353,0-.48-.16-.48-.479,0-.16.127-.32.416-.386,1.344-.286,1.472-.543,1.472-1.44V37.44c0-.8-.128-1.024-.48-1.12-1.088-.289-1.375-.095-1.375-.513,0-.19.062-.383.639-.383.449,0,1.408.127,2.242.127.928,0,1.664-.127,2.238-.127.512,0,.641.127.641.383,0,.449-.319.418-.961.513-.479.065-.83.289-.83.864V44.1c0,.226.062.353.287.353h6.562c.225,0,.256-.095.256-.416Z"/><path class="cls-1" d="M164.686,35.039c3.682,0,7.041,4.514,7.041,10.531S168.368,56.1,164.686,56.1s-7.041-4.514-7.041-10.532S161.005,35.039,164.686,35.039Zm0,20.3c2.081,0,4.481-2.529,4.481-9.764s-2.4-9.763-4.481-9.763-4.48,2.529-4.48,9.763S162.6,55.334,164.686,55.334Z"/><path class="cls-1" d="M173.579,37.857c0-1.087-.287-1.472-.863-1.537-.992-.129-1.186-.129-1.186-.48,0-.223.065-.416.514-.416.926,0,1.791.127,2.592.127,1.185,0,2.5-.127,3.65-.127,3.295,0,5.92,2.016,5.92,5.793a5.392,5.392,0,0,1-5.664,5.348,14.135,14.135,0,0,1-2.529-.323c-.256,0-.321.194-.321.481v6.465c0,1.058.254,1.539.928,1.632,1.088.161,1.631.129,1.631.481,0,.224-.19.416-.574.416-.481,0-1.057-.127-2.879-.127a24.807,24.807,0,0,0-2.6.127c-.51,0-.672-.1-.672-.32,0-.383.225-.448,1.28-.577.576-.062.769-.48.769-1.312Zm2.113,6.69c0,.512.481,1.25,1.858,1.25,2.814,0,4.287-1.922,4.287-4.74,0-2.946-1.535-4.866-4.383-4.866-1.312,0-1.762.323-1.762,1.057Z"/><path class="cls-1" d="M188.485,52.965c0,1.5.129,1.7,1.153,1.92.576.129.672.224.672.449,0,.287-.192.383-.866.383-.414,0-1.086-.127-1.951-.127-1.183,0-1.695.127-2.338.127-.416,0-.578-.127-.578-.416,0-.256.1-.383.611-.481,1.026-.191,1.184-.318,1.184-1.759v-15.2c0-1.152-.129-1.41-.607-1.537-.768-.193-1.188-.129-1.188-.545,0-.191.2-.351.516-.351a18.207,18.207,0,0,0,2.463.127c1.154,0,1.826-.127,2.242-.127.383,0,.512.127.512.383,0,.449-.256.289-1.122.513a.914.914,0,0,0-.7,1.024v6.019c0,.928.034,1.024.1,1.024a4.485,4.485,0,0,0,.607-.7c1.088-1.313,3.457-4.225,4.516-5.825a1.914,1.914,0,0,0,.381-.9c0-.414-.256-.607-.9-.734-.545-.1-.8-.16-.8-.45,0-.191.195-.351.609-.351.547,0,1.506.127,2.273.127.9,0,1.729-.127,2.114-.127.511,0,.672.127.672.351,0,.385-.289.29-.93.416-.736.161-1.889,1.249-3.647,3.362-2.337,2.914-2.4,3.137-2.4,3.361,0,.32.352.641,4.354,8.674,1.5,3.008,1.664,3.041,2.175,3.232.383.161.864.1.864.481,0,.193-.129.416-.641.416-.576,0-.8-.127-2.176-.127a20.288,20.288,0,0,0-2.4.127c-.608,0-.8-.127-.8-.447,0-.225.1-.321.863-.45.866-.158.993-.318.993-.7,0-.416-.1-.576-1.473-3.3-2.881-5.728-3.1-6.048-3.262-6.048a2.4,2.4,0,0,0-1.09,1.376Z"/><path class="cls-1" d="M203.931,53.156c0,.9.158,1.473,1.023,1.664.609.129,1.279.161,1.279.61,0,.16-.127.287-.7.287a18.177,18.177,0,0,0-2.656-.127,18.719,18.719,0,0,0-2.656.127c-.387,0-.608,0-.608-.352,0-.384.575-.416,1.151-.545.961-.224,1.056-.384,1.056-1.5V37.473c0-.864-.256-1.057-.894-1.153-1.059-.16-1.348-.031-1.348-.513,0-.19.162-.383.674-.383.8,0,1.7.127,2.625.127.99,0,2.018-.127,2.721-.127.447,0,.7.127.7.416,0,.385-.383.32-1.471.48-.674.1-.9.545-.9,1.153Z"/><path class="cls-1" d="M220.39,55.365c0,.9,0,.928-.352.928-.387,0-.322-.352-5.187-9.312-4.321-7.973-4.288-8.485-4.608-8.485-.162,0-.224.1-.224.7V50.469c0,3.135.191,4.193.992,4.351.9.194,1.633.032,1.633.577,0,.257-.192.32-.481.32a16.464,16.464,0,0,0-2.24-.127c-1.6,0-2.051.127-2.561.127-.258,0-.353-.127-.353-.32,0-.383,1.025-.448,1.375-.577.609-.224.738-.894.738-1.855V38.08c0-1.121-.129-1.664-.738-1.76-.8-.129-1.088-.095-1.088-.513,0-.35.451-.383.705-.383.641,0,1.73.064,2.209.064l.641.032c.48.031.607.64.992,1.408l4.576,8.771c2.656,5.088,2.785,5.219,2.914,5.219s.158-.162.158-.449V38.69c0-1.793-.383-2.274-1.119-2.37-.641-.095-1.088-.193-1.088-.513a.4.4,0,0,1,.416-.383c.354,0,.8.127,2.24.127.705,0,1.344-.127,1.954-.127.416,0,.511.1.511.383,0,.384-.32.384-1.088.513-.736.127-.927.639-.927,1.7Z"/><path class="cls-1" d="M226.665,56.1a7.457,7.457,0,0,1-3.744-.8c-.447-.287-.576-.608-.576-3.488,0-2.243.095-2.3.447-2.3.385,0,.385.16.449.48.8,3.938,2.209,5.346,4.1,5.346,2.111,0,3.584-1.889,3.584-4.291,0-5.633-8.449-5.279-8.449-11.234,0-2.625,2.433-4.77,5.441-4.77a6.827,6.827,0,0,1,3.52.961c.191.191.191.385.191,3.041,0,1.664,0,1.729-.32,1.729-.448,0-.352-.512-.543-1.184-.8-2.816-1.953-3.779-3.362-3.779a3.1,3.1,0,0,0-3.009,3.074c0,5.666,8.453,4.8,8.453,11.2C232.845,53.732,230.282,56.1,226.665,56.1Z"/><path class="cls-2" d="M60.353,66.023c-.936-10.349-8.187-22.943-16.607-28.914h0C35.581,42.9,27.986,55.885,27.062,66.076h0c9.168,4.242,24.719,3.887,33.291-.053Z"/><path class="cls-3" d="M27.23,65.979A47.139,47.139,0,0,1,43.746,37.363l0-6.064A51.969,51.969,0,0,0,21.988,69.01Z"/><path class="cls-1" d="M27.24,65.973a47.155,47.155,0,0,0,33.039.008l5.25,3.033A51.957,51.957,0,0,1,21.994,69Z"/><path class="cls-4" d="M60.256,65.979a47.126,47.126,0,0,0-16.51-28.616V31.3A51.947,51.947,0,0,1,65.5,69.01Z"/><polygon class="cls-1" points="35.546 64.174 51.95 64.174 51.95 66.373 35.546 66.373 35.546 64.174 35.546 64.174"/><path class="cls-1" d="M44.093,45.225h.8s.169-1.014-.618-1.3c-.169-.9-.113-2.479-.226-3.211-.032-.348-.171-.662-.315-.668h0c-.146.006-.283.32-.316.668-.111.732-.054,2.308-.225,3.211-.788.281-.62,1.3-.62,1.3h1.517Z"/><path class="cls-1" d="M42.647,54.447H39.879c.169-.283.226-.623.566-.791a1.8,1.8,0,0,1,.734-.056c.113-1.3-.226-1.414,1.186-1.358V48.68a1.281,1.281,0,0,1,.115-2.489c.055-.054.055-.394.111-.394h2.287c.057,0,.057.34.112.394a1.281,1.281,0,0,1,.115,2.489v3.562c1.412-.056,1.074.057,1.185,1.358a1.824,1.824,0,0,1,.738.056c.339.168.4.508.563.791H42.647Z"/><path class="cls-1" d="M39.324,54.957h2.43a18.672,18.672,0,0,0-1.808,7.18,1.14,1.14,0,0,0-.566,1.244H36.609a1.254,1.254,0,0,0-.847-1.358c1.017-4.523,1.923-5.824,3.562-7.066Z"/><path class="cls-1" d="M48.147,54.957H45.716a18.654,18.654,0,0,1,1.809,7.18,1.142,1.142,0,0,1,.566,1.244H50.86a1.255,1.255,0,0,1,.85-1.358c-1.019-4.523-1.922-5.824-3.563-7.066Z"/><path class="cls-1" d="M44.142,63.381h1.6a1.151,1.151,0,0,1,.955-1.3,13.832,13.832,0,0,0-1.639-7.123H42.378a13.8,13.8,0,0,0-1.64,7.123,1.153,1.153,0,0,1,.957,1.3h2.447Z"/></svg>