<?xml version="1.0" standalone="no"?>
<!DOCTYPE svg PUBLIC "-//W3C//DTD SVG 20010904//EN"
 "http://www.w3.org/TR/2001/REC-SVG-20010904/DTD/svg10.dtd">
<svg version="1.0" xmlns="http://www.w3.org/2000/svg"
 width="707.000000pt" height="118.000000pt" viewBox="0 0 707.000000 118.000000"
 preserveAspectRatio="xMidYMid meet">

<g transform="translate(0.000000,118.000000) scale(0.100000,-0.100000)"
fill="#000000" stroke="none">
<path d="M1789 1169 c-117 -17 -265 -93 -340 -175 -174 -190 -204 -481 -72
-703 100 -167 299 -279 499 -281 79 0 199 31 277 72 79 42 193 155 234 233
111 213 88 458 -61 647 -84 106 -230 187 -372 208 -78 11 -87 11 -165 -1z
m173 -160 c125 -26 242 -122 301 -246 29 -62 32 -77 32 -163 0 -113 -18 -173
-76 -254 -105 -146 -297 -210 -472 -156 -209 65 -336 290 -283 500 58 226 276
365 498 319z"/>
<path d="M3312 1168 c-22 -28 -513 -1119 -507 -1128 3 -6 37 -10 74 -10 66 0
76 4 263 94 l194 93 195 -93 c185 -89 197 -93 262 -94 50 0 69 4 73 14 7 20
-493 1123 -513 1130 -22 9 -29 7 -41 -6z m187 -608 c83 -184 150 -338 149
-342 -2 -4 -72 26 -157 66 l-153 74 -92 -43 c-50 -23 -120 -57 -155 -74 -34
-18 -65 -31 -67 -28 -2 2 62 149 142 328 80 178 150 335 155 348 6 15 13 21
19 15 5 -5 77 -160 159 -344z"/>
<path d="M4522 1171 c-13 -8 -212 -1054 -212 -1114 l0 -28 77 3 77 3 22 130
c12 72 38 237 59 368 21 130 41 237 45 237 4 0 38 -78 75 -172 37 -95 104
-265 149 -378 l81 -205 35 0 35 0 147 375 c81 206 151 374 155 373 4 -1 35
-165 68 -365 l61 -363 77 -3 77 -3 0 27 c0 21 -177 1011 -195 1091 -7 28 -51
42 -70 22 -7 -8 -88 -200 -180 -426 -92 -227 -170 -413 -174 -413 -4 0 -80
181 -170 403 -90 221 -170 412 -178 425 -14 23 -38 28 -61 13z"/>
<path d="M5 1138 c-3 -13 -4 -266 -3 -563 l3 -540 78 -3 77 -3 0 221 0 220
128 0 127 0 110 -218 110 -217 83 -3 c66 -2 83 0 88 12 4 9 -40 101 -103 218
-59 112 -109 208 -111 214 -2 6 21 25 50 42 61 34 116 91 150 154 20 37 23 58
23 143 0 85 -4 107 -24 148 -33 66 -96 128 -166 163 l-60 29 -277 3 -277 3 -6
-23z m509 -139 c49 -14 122 -80 137 -126 29 -89 -15 -195 -100 -240 -41 -21
-56 -23 -213 -23 l-168 0 0 200 0 200 153 0 c83 0 169 -5 191 -11z"/>
<path d="M6103 1149 c-10 -10 -13 -134 -13 -553 0 -298 4 -547 9 -554 6 -11
60 -13 267 -10 254 4 260 4 328 31 333 132 467 522 284 825 -67 109 -185 203
-307 244 -59 20 -92 22 -311 26 -188 2 -248 0 -257 -9z m549 -176 c39 -18 88
-52 116 -80 180 -180 152 -502 -55 -644 -79 -55 -145 -69 -314 -69 l-149 0 0
408 c0 225 3 412 8 416 4 4 79 6 167 4 156 -3 162 -4 227 -35z"/>
</g>
</svg>
