<svg id="Layer_1" data-name="Layer 1" xmlns="http://www.w3.org/2000/svg" viewBox="0 0 66.763 53.102"><defs><style>.cls-1{fill:none;}.cls-2{fill:#fff;}.cls-3{fill:#091540;}.cls-4{fill:#37cda1;}.cls-5{fill:#0038de;}.cls-6{fill:#fdac44;}.cls-7{fill:#fe6c69;}</style></defs><title>ROAMDCostManagementSolutionsLogo</title><path class="cls-1" d="M39.1,15.338a1.689,1.689,0,0,1,.793.2,1.7,1.7,0,0,0-.834-.22H37.106a1.347,1.347,0,0,1-.387-.056,1.317,1.317,0,0,0,.428.077Z"/><path class="cls-1" d="M41.927,21.044V17.068c0-.068-.012-.125-.017-.188a.81.81,0,0,1-.024.168v5.109h.041Z"/><path class="cls-1" d="M45,19.005a.1.1,0,0,0-.1-.1h-.02a20.618,20.618,0,0,1-2.493,5.665H45Z"/><polygon class="cls-1" points="55.729 47.99 55.729 47.949 50.394 42.552 47.283 42.552 47.283 42.572 50.394 42.572 55.729 47.99"/><path class="cls-1" d="M47.262,42.572v1.092H34.037V33.549c-.618.474-1.236.927-1.834,1.339a25.993,25.993,0,0,1-8.776,3.935v8.446a.1.1,0,0,0,.1.1H44.893a.1.1,0,0,0,.1-.1V43.685h2.287V42.572Z"/><path class="cls-1" d="M14.9,25.02a2.347,2.347,0,0,0-2.348-2.348h-.01a2.348,2.348,0,0,1,0,4.7h.01A2.347,2.347,0,0,0,14.9,25.02Z"/><path class="cls-1" d="M13.086,29.2a4.207,4.207,0,0,0,3.667-4.182A4.224,4.224,0,0,1,13.086,29.2Z"/><path class="cls-1" d="M29.34,15.317A1.743,1.743,0,0,0,27.692,16.6h.048a1.7,1.7,0,0,1,1.641-1.257h1.957a1.4,1.4,0,0,0,1.257-.8,1.827,1.827,0,0,1,2.606-.756,1.836,1.836,0,0,0-2.648.735,1.415,1.415,0,0,1-1.256.8Z"/><path class="cls-1" d="M31.276,14.226a.257.257,0,0,0,.184-.077.233.233,0,0,1-.143.056H29.36A2.836,2.836,0,0,0,27.5,14.9a2.808,2.808,0,0,1,1.822-.671Z"/><path class="cls-1" d="M61.022,32.056l0-.011a.738.738,0,0,0-.742-.741h-13v.02h13A.738.738,0,0,1,61.022,32.056Z"/><rect class="cls-1" x="55.75" y="42.552" width="7.334" height="0.021"/><path class="cls-1" d="M61.022,28.512l0-.01a.739.739,0,0,0-.742-.742h-13v.021h13A.737.737,0,0,1,61.022,28.512Z"/><rect class="cls-1" x="27.63" y="18.881" width="13.143" height="0.021"/><path class="cls-1" d="M38.775,29.244h-.7a.742.742,0,0,1,0-1.484H45V25.68H35.17V42.572H45V32.808H38.074a.742.742,0,0,1,0-1.484H45v-2.06h2.266v-.02H38.775Z"/><path class="cls-2" d="M57.213,24.567h-9.93V19.005a2.391,2.391,0,0,0-2-2.349,2.347,2.347,0,0,0-.392-.041H41.886a2.821,2.821,0,0,0-2.8-2.389H37.127a.362.362,0,0,1-.268-.186A2.916,2.916,0,0,0,34.2,12.392a2.978,2.978,0,0,0-1.562.442,2.984,2.984,0,0,1,1.6-.463A2.952,2.952,0,0,1,36.9,14.02a.3.3,0,0,0,.268.185h1.957a2.853,2.853,0,0,1,2.8,2.39h3.008a2.483,2.483,0,0,1,.391.041,13.252,13.252,0,0,0-1.751-8.1C41.1,4.193,36.447,2.545,31.462,2.545c-5.048,0-10.012,3.955-12.979,9.311a5.954,5.954,0,0,1-5.439,3.008,9.955,9.955,0,0,0-9.826,6.077C.426,28,5.612,35.145,12.07,38.009c0,.017,0,.034.006.052l10.047-.371v5.974H18.046l-3.323-1.689-2.647-3.914A7.056,7.056,0,0,0,19,43.891h2.143v3.358a2.391,2.391,0,0,0,2.389,2.389H44.893a2.391,2.391,0,0,0,2.39-2.389V43.685H45v3.584a.1.1,0,0,1-.1.1H23.53a.1.1,0,0,1-.1-.1V38.823A25.993,25.993,0,0,0,32.2,34.888c.6-.412,1.216-.865,1.834-1.339V43.664H47.262V42.572h.021v-.02h3.111l5.335,5.4v.041l-5.335-5.418H47.283v1.113H49.92l6.942,7.025V43.685H64.2V24.567ZM11.361,24.7c-.006.024-.017.047-.022.071C11.344,24.75,11.355,24.727,11.361,24.7Zm-.022.564c0,.025.016.047.022.072C11.355,25.314,11.344,25.292,11.339,25.267Zm.072.229c.006.013.014.025.02.038C11.425,25.521,11.417,25.509,11.411,25.5Zm0-.951c.006-.015.015-.027.022-.041C11.426,24.518,11.417,24.53,11.411,24.545Zm1.129,2.823a2.348,2.348,0,0,0,0-4.695h.01a2.349,2.349,0,0,1,0,4.7Zm.236-3.538c.024.005.047.016.071.022C12.823,23.846,12.8,23.835,12.776,23.83Zm.229.072c.014.006.026.015.04.021C13.031,23.917,13.019,23.908,13.005,23.9Zm.623,1.631c.006-.013.014-.024.02-.037C13.642,25.509,13.634,25.52,13.628,25.533Zm.069-.194c.007-.024.018-.047.023-.072C13.715,25.292,13.7,25.315,13.7,25.339ZM13.086,29.2a4.224,4.224,0,0,0,3.667-4.182A4.207,4.207,0,0,1,13.086,29.2ZM44.873,18.9h.02a.1.1,0,0,1,.1.1v5.562H42.38A20.618,20.618,0,0,0,44.873,18.9Zm-2.987,2.142v-4a.81.81,0,0,0,.024-.168c.005.063.017.12.017.188v5.089h-.041Zm-4.78-5.727h1.957a1.7,1.7,0,0,1,.834.22,1.689,1.689,0,0,0-.793-.2H37.147a1.317,1.317,0,0,1-.428-.077A1.347,1.347,0,0,0,37.106,15.317Zm-4.761-2.272Zm.208,1.469a1.836,1.836,0,0,1,2.648-.735,1.827,1.827,0,0,0-2.606.756,1.4,1.4,0,0,1-1.257.8H29.381A1.7,1.7,0,0,0,27.74,16.6h-.048a1.743,1.743,0,0,1,1.648-1.278H31.3A1.415,1.415,0,0,0,32.553,14.514Zm-3.193-.309h1.957a.233.233,0,0,0,.143-.056.257.257,0,0,1-.184.077H29.319A2.808,2.808,0,0,0,27.5,14.9,2.836,2.836,0,0,1,29.36,14.205Zm-1.73,4.7v-.021H40.773V18.9ZM47.262,29.264H45v2.06H38.074a.742.742,0,0,0,0,1.484H45v9.764H35.17V25.68H45v2.08H38.074a.742.742,0,0,0,0,1.484h9.188Zm.021-1.5h13a.739.739,0,0,1,.742.742l0,.01a.737.737,0,0,0-.74-.731h-13Zm0,3.564V31.3h13a.738.738,0,0,1,.742.741l0,.011a.738.738,0,0,0-.74-.732Zm15.8,11.248H55.75v-.02h7.334Z"/><polygon class="cls-3" points="12.076 38.061 12.076 38.061 12.076 38.061 12.076 38.061 12.076 38.061"/><path class="cls-1" d="M38.074,27.763a.737.737,0,0,0-.741.741h0a.738.738,0,0,0,.741.742h9.209V27.763H38.074Z"/><path class="cls-1" d="M38.074,31.327a.737.737,0,0,0-.741.741h0a.738.738,0,0,0,.741.742h9.209V31.327H38.074Z"/><path class="cls-1" d="M45,42.575H35.17V25.682H47.283V24.57h-4.9A20.623,20.623,0,0,0,44.873,18.9H41.927v3.255H26.5V18.884H23.53a.1.1,0,0,0-.1.1V38.825A25.991,25.991,0,0,0,32.2,34.891c.6-.412,1.216-.866,1.834-1.339V43.667H47.262V42.554H45Z"/><path class="cls-1" d="M60.282,27.763a.738.738,0,0,1,.742.741h0a.739.739,0,0,1-.742.742H47.262v2.06h13.02a.739.739,0,0,1,.742.742h0a.738.738,0,0,1-.742.741H47.262v9.765h3.132l5.356,5.418V42.554h7.334V25.661h-15.8v2.1Zm.742,9.867a.739.739,0,0,1-.742.742H59.005v1.277a.739.739,0,0,1-.742.742h0a.738.738,0,0,1-.741-.742V38.372H56.244a.738.738,0,0,1-.741-.742h0a.737.737,0,0,1,.741-.741h1.278V35.612a.738.738,0,0,1,.741-.742h0a.739.739,0,0,1,.742.742v1.277h1.277a.738.738,0,0,1,.742.741Z"/><path class="cls-1" d="M15.661,39.155a13.924,13.924,0,0,1-2.328-.6A5.922,5.922,0,0,0,19,42.781h2.143V39.237A18.782,18.782,0,0,1,15.661,39.155Z"/><rect class="cls-1" x="27.63" y="18.904" width="13.185" height="2.163"/><path class="cls-4" d="M39.1,15.34H37.147a1.415,1.415,0,0,1-1.256-.8,1.835,1.835,0,0,0-1.648-1.03,1.812,1.812,0,0,0-1.648,1.03,1.4,1.4,0,0,1-1.257.8H29.381a1.7,1.7,0,0,0-1.648,1.278H40.794A1.807,1.807,0,0,0,39.1,15.34Z"/><path class="cls-4" d="M11.973,29.205a4.224,4.224,0,1,1,1.113,0v7.663a5.676,5.676,0,0,0,.247,1.69,15.5,15.5,0,0,0,2.328.6,18.908,18.908,0,0,0,5.5.082V18.987a2.391,2.391,0,0,1,2.39-2.39h3.008a2.82,2.82,0,0,1,2.8-2.39h1.957a.363.363,0,0,0,.268-.185,2.918,2.918,0,0,1,2.658-1.648A2.951,2.951,0,0,1,36.9,14.022a.3.3,0,0,0,.268.185h1.957a2.853,2.853,0,0,1,2.8,2.39h3.008a2.607,2.607,0,0,1,.391.041,13.254,13.254,0,0,0-1.751-8.1C41.1,4.2,36.447,2.547,31.462,2.547c-5.048,0-10.012,3.956-12.979,9.312a5.958,5.958,0,0,1-5.439,3.008,9.955,9.955,0,0,0-9.826,6.077c-2.8,7.086,2.431,14.256,8.92,17.1a7.786,7.786,0,0,1-.1-1.2V29.205Z"/><path class="cls-5" d="M19,42.781a5.914,5.914,0,0,1-5.665-4.223,5.778,5.778,0,0,1-.247-1.69V29.205a4.224,4.224,0,1,0-1.113,0v7.663a7.554,7.554,0,0,0,.1,1.2A7.056,7.056,0,0,0,19,43.893h2.143V42.781ZM10.2,25.023a2.349,2.349,0,1,1,2.349,2.348A2.348,2.348,0,0,1,10.2,25.023Z"/><path class="cls-5" d="M57.213,20.449a6.927,6.927,0,0,0,6.077-4.635,10.913,10.913,0,0,0,.783-4.1V5.8A2.808,2.808,0,0,0,61.58,3.021h0V4.133a1.682,1.682,0,0,1,1.38,1.649v5.912a9.849,9.849,0,0,1-.7,3.667,5.947,5.947,0,0,1-11.207,0,9.447,9.447,0,0,1-.7-3.667V5.8a1.667,1.667,0,0,1,.968-1.524.564.564,0,0,1-.021-.186V3.083a2.806,2.806,0,0,0-2.081,2.7v5.912a10.764,10.764,0,0,0,.783,4.1,6.908,6.908,0,0,0,6.078,4.635v4.12h1.112v-4.1Z"/><path class="cls-6" d="M61.58,3.021h0a.927.927,0,0,0-1.854,0V4.092a.923.923,0,0,0,.927.927.94.94,0,0,0,.927-.865V3.021Z"/><path class="cls-6" d="M51.321,4.278a.909.909,0,0,0,.906.741h0a.923.923,0,0,0,.927-.927V3.021a.923.923,0,0,0-.927-.927h0a.923.923,0,0,0-.927.927V4.113A.505.505,0,0,0,51.321,4.278Z"/><circle class="cls-5" cx="12.529" cy="25.023" r="1.215"/><path class="cls-2" d="M14.878,25.023a2.349,2.349,0,1,0-2.349,2.348A2.348,2.348,0,0,0,14.878,25.023Zm-3.564,0a1.216,1.216,0,1,1,1.215,1.215A1.218,1.218,0,0,1,11.314,25.023Z"/><rect class="cls-7" x="44.996" y="25.682" width="2.287" height="2.101"/><rect class="cls-7" x="44.996" y="32.81" width="2.287" height="9.765"/><rect class="cls-7" x="44.996" y="29.267" width="2.287" height="2.06"/><path class="cls-7" d="M45,47.272a.1.1,0,0,1-.1.1H23.53a.1.1,0,0,1-.1-.1V18.987a.1.1,0,0,1,.1-.1H26.5V17.05a3.3,3.3,0,0,1,.041-.453H23.53a2.391,2.391,0,0,0-2.389,2.39V47.251a2.391,2.391,0,0,0,2.389,2.39H44.893a2.391,2.391,0,0,0,2.39-2.39V43.687H45v3.585Z"/><path class="cls-7" d="M41.886,16.618a3.163,3.163,0,0,1,.041.453V18.9h2.966a.1.1,0,0,1,.1.1V24.57h2.287V19.007a2.389,2.389,0,0,0-2-2.348,2.246,2.246,0,0,0-.392-.041Z"/><path class="cls-7" d="M40.814,17.05a1.721,1.721,0,0,0-.061-.453H27.692a1.575,1.575,0,0,0-.062.453v1.834H40.814Z"/><path class="cls-6" d="M38.074,32.81a.738.738,0,0,1-.741-.742h0a.737.737,0,0,1,.741-.741H45v-2.06H38.074a.738.738,0,0,1-.741-.742h0a.738.738,0,0,1,.741-.742H45v-2.1H35.17V42.575H45V32.81Z"/><path class="cls-6" d="M44.893,18.9h0A21.308,21.308,0,0,1,42.38,24.57H45V19.007A.1.1,0,0,0,44.893,18.9Z"/><path class="cls-6" d="M23.448,43.893v3.358a.1.1,0,0,0,.1.1H44.914a.1.1,0,0,0,.1-.1V43.687H34.078V33.572c-.618.474-1.216.927-1.834,1.339a26.409,26.409,0,0,1-8.776,3.935v3.935l-.02,1.112Z"/><path class="cls-7" d="M60.282,36.889H59.005V35.612a.739.739,0,0,0-.742-.742h0a.738.738,0,0,0-.741.742v1.277H56.244a.737.737,0,0,0-.741.741h0a.738.738,0,0,0,.741.742h1.278v1.277a.738.738,0,0,0,.741.742h0a.739.739,0,0,0,.742-.742V38.372h1.277a.739.739,0,0,0,.742-.742h0A.738.738,0,0,0,60.282,36.889Z"/><polygon class="cls-4" points="57.213 24.57 56.08 24.57 47.283 24.57 47.283 25.682 63.084 25.682 63.084 42.575 55.729 42.575 55.729 47.993 50.394 42.575 47.283 42.575 47.283 43.687 49.92 43.687 56.862 50.712 56.862 43.687 64.196 43.687 64.196 24.57 57.213 24.57"/><path class="cls-4" d="M60.282,29.267a.739.739,0,0,0,.742-.742h0a.739.739,0,0,0-.742-.742H47.262v1.484Z"/><path class="cls-4" d="M60.282,32.81a.739.739,0,0,0,.742-.742h0a.738.738,0,0,0-.742-.741H47.262V32.81Z"/><path class="cls-5" d="M41.886,16.618a2.821,2.821,0,0,0-2.8-2.39H37.127a.362.362,0,0,1-.268-.186A2.916,2.916,0,0,0,34.2,12.394a2.952,2.952,0,0,0-2.657,1.648.3.3,0,0,1-.268.186H29.319a2.853,2.853,0,0,0-2.8,2.39,3.163,3.163,0,0,0-.041.453v5.088h15.41V17.05A.774.774,0,0,0,41.886,16.618ZM27.63,21.047v-4a1.682,1.682,0,0,1,.062-.453A1.742,1.742,0,0,1,29.34,15.32H31.3a1.416,1.416,0,0,0,1.256-.8,1.835,1.835,0,0,1,1.648-1.03,1.813,1.813,0,0,1,1.649,1.03,1.4,1.4,0,0,0,1.256.8h1.957A1.7,1.7,0,0,1,40.711,16.6a1.575,1.575,0,0,1,.062.453v4Z"/></svg>