<?xml version="1.0" encoding="utf-8"?>
<!-- Generator: Adobe Illustrator 23.1.0, SVG Export Plug-In . SVG Version: 6.00 Build 0)  -->
<svg version="1.1" id="Layer_1" xmlns="http://www.w3.org/2000/svg" xmlns:xlink="http://www.w3.org/1999/xlink" x="0px" y="0px"
	 viewBox="0 0 471.5 217.4" style="enable-background:new 0 0 471.5 217.4;" xml:space="preserve">
<style type="text/css">
	.st0{fill:#FBAB44;}
	.st1{font-family:'Arial-BoldMT';}
	.st2{font-size:85.742px;}
	.st3{letter-spacing:-1;}
	.st4{fill:#3754A5;}
	.st5{letter-spacing:1;}
	.st6{fill:#4FBE9B;}
</style>
<title>GPO Infographics</title>
<text transform="matrix(1 0 0 1 91.029 70.3932)" class="st0 st1 st2 st3">F</text>
<text transform="matrix(1 0 0 1 141.96 70.3932)" class="st0 st1 st2">air</text>
<text transform="matrix(1 0 0 1 138.703 147.5432)" class="st4 st1 st2 st5">L</text>
<text transform="matrix(1 0 0 1 195.463 147.5432)" class="st4 st1 st2">o</text>
<text transform="matrix(1 0 0 1 247.766 147.5432)" class="st4 st1 st2">gi</text>
<text transform="matrix(1 0 0 1 325.532 147.5432)" class="st4 st1 st2 st5">c</text>
<text transform="matrix(1 0 0 1 370.116 147.5432)" class="st4 st1 st2">al</text>
<text transform="matrix(1 0 0 1 35.149 211.7002)" class="st6 st1 st2">F</text>
<text transform="matrix(1 0 0 1 87.795 211.7002)" class="st6 st1 st2">r</text>
<text transform="matrix(1 0 0 1 127.492 211.7002)" class="st6 st1 st2 st5">e</text>
<text transform="matrix(1 0 0 1 174.134 211.7002)" class="st6 st1 st2">e</text>
</svg>
